<?xml version="1.0" encoding="utf-8"?>
<!-- Generator: Adobe Illustrator 24.0.3, SVG Export Plug-In . SVG Version: 6.00 Build 0)  -->
<svg version="1.1" xmlns="http://www.w3.org/2000/svg" xmlns:xlink="http://www.w3.org/1999/xlink" x="0px" y="0px"
	 viewBox="0 0 24 24" style="enable-background:new 0 0 24 24;" xml:space="preserve">
<style type="text/css">
	.st0{display:none;}
	.st1{display:inline;}
	.st2{fill:#FFFFFF;}
	
		.st3{display:inline;fill:none;stroke:#000000;stroke-width:2.7121;stroke-linecap:round;stroke-linejoin:round;stroke-miterlimit:10;}
	.st4{fill:#C750FF;}
	.st5{fill:#18161D;}
	.st6{fill:#C365EF;}
</style>
<g id="Layer_1" class="st0">
	<g class="st1">
		<g>
			<path d="M-966.75-419.83c-8.13,0-13.38-5.25-13.38-13.38c0-24.85,36.6-43.88,56.26-54.11l0.2-0.1l0.05-0.22
				c1.62-6.46,2.66-11.89,3.21-14.81c0.19-0.99,0.35-1.84,0.4-1.98l1.62-3.23l-2.45,2.7c-4.95,5.42-18.91,16.04-28.72,16.04
				c-8.38,0-13.38-5.37-13.38-14.38c0-4.51,0.71-9.01,2.12-13.4l0.21-0.65h-0.69c-7.33,0-8.43-2.59-8.43-4.13
				c0-0.62,0.24-2.64,3.3-2.64c1.2,0,2.43,0.19,3.72,0.39c1.16,0.18,2.36,0.36,3.69,0.44l0.35,0.02l0.14-0.33
				c3.35-7.94,7.72-15.18,12.98-21.53c12.33-14.87,33.35-27.42,45.9-27.42c7.1,0,10.41,3.26,10.41,10.24
				c0,9.92-15.4,26.19-29.17,34.11c-13.91,7.75-29.12,9.94-35.01,10.52l-0.33,0.03l-0.1,0.31c-1.53,4.76-2.34,9.38-2.34,13.38
				c0,5.66,1.49,9.43,8.76,9.43c10.15,0,29.56-19.03,31.51-22.4c2.09-3.06,3.13-3.55,5.35-3.55c1.07,0,1.98,0.98,1.98,2.15
				c0,1.2-0.69,2.67-1.65,4.71c-1.11,2.36-2.63,5.58-3.79,10.04l-0.51,2.28c-0.56,2.52-1.22,5.47-1.98,8.99l-0.24,1.12l0.98-0.58
				c7.04-4.17,14.84-9.25,19.32-15.34c1.89-2.36,3.14-3.93,4.72-3.93c1.14,0,1.81,0.68,1.81,1.81c0,1.31-0.6,2.22-2.52,4.47
				c-6.89,8.3-16.75,14.55-25.49,19.56l-0.19,0.11l-0.05,0.21C-927.44-447.2-947.88-419.83-966.75-419.83z M-926.3-480.61
				c-16.68,7.71-48.23,27.34-48.23,46.41c0,6.06,2.92,9.26,8.43,9.26c13.59,0,34.4-28.32,40.49-55.1l0.23-0.99L-926.3-480.61z
				 M-900.96-566.45c-10.64,0-29.74,13.52-39.07,25.15c-4.27,5.06-7.97,10.77-10.97,16.96l-0.39,0.8l0.89-0.09
				c10.47-1.05,19.82-3.85,27.8-8.33c16.81-9.54,27.53-24.32,27.53-28.87C-895.17-564.19-897.5-566.45-900.96-566.45z"/>
			<path class="st2" d="M-899.64-572.06c6.76,0,9.91,3.1,9.91,9.74c0,3.85-2.96,9.79-7.92,15.9c-5.59,6.89-13.05,13.2-20.99,17.77
				c-13.83,7.71-28.96,9.88-34.82,10.46l-0.65,0.06l-0.2,0.62c-1.55,4.81-2.36,9.49-2.36,13.53c0,7.05,2.68,9.93,9.26,9.93
				c10.28,0,29.84-19.11,31.92-22.61c1.99-2.9,2.89-3.34,4.94-3.34c0.8,0,1.48,0.75,1.48,1.65c0,1.09-0.67,2.52-1.61,4.5
				c-1.12,2.37-2.65,5.62-3.83,10.16l-0.5,2.26c-0.57,2.56-1.22,5.47-1.98,8.99l-0.48,2.23l1.97-1.16
				c7.08-4.19,14.94-9.31,19.45-15.44c1.81-2.26,3-3.76,4.34-3.76c1.09,0,1.31,0.71,1.31,1.31c0,1.1-0.43,1.84-2.42,4.15
				c-6.83,8.24-16.65,14.45-25.35,19.44l-0.37,0.21l-0.1,0.42c-9.25,37.49-29.48,64.7-48.12,64.7c-7.83,0-12.88-5.06-12.88-12.88
				c0-24.55,36.42-43.49,55.99-53.66l0.4-0.21l0.11-0.44c1.62-6.48,2.66-11.92,3.22-14.84c0.17-0.88,0.32-1.65,0.37-1.89l3.21-6.38
				l-4.87,5.33c-4.9,5.36-18.69,15.87-28.35,15.87c-8.19,0-12.88-5.06-12.88-13.88c0-4.45,0.71-8.91,2.1-13.25l0.42-1.31h-1.37
				c-5.04,0-7.93-1.32-7.93-3.63c0-0.64,0.27-2.14,2.8-2.14c1.17,0,2.37,0.18,3.65,0.38c1.17,0.18,2.38,0.36,3.73,0.44l0.71,0.04
				l0.27-0.65c3.33-7.89,7.68-15.1,12.91-21.4C-931.63-561.11-910.7-572.06-899.64-572.06 M-952.23-522.95l1.78-0.18
				c10.54-1.05,19.96-3.88,28-8.39c16.96-9.62,27.78-24.65,27.78-29.3c0-3.66-2.53-6.12-6.29-6.12c-9.03,0-27.83,10.83-39.44,25.32
				c-4.31,5.11-8.02,10.85-11.05,17.07L-952.23-522.95 M-966.09-424.44c15.01,0,35.42-31.03,40.98-55.49l0.45-1.98l-1.85,0.85
				c-3.9,1.8-17.58,8.46-29.94,18.52c-12.32,10.02-18.57,19.56-18.57,28.34C-975.02-426.14-970.16-424.44-966.09-424.44
				 M-899.64-573.06c-12.23,0-33.39,12.07-46.28,27.6c-5.62,6.78-9.92,14.22-13.06,21.65c-2.81-0.17-5.12-0.83-7.44-0.83
				c-2.81,0-3.8,1.65-3.8,3.14c0,1.82,1.32,4.63,8.93,4.63c-1.49,4.63-2.15,9.26-2.15,13.55c0,9.92,5.79,14.88,13.88,14.88
				c9.92,0,23.8-10.41,29.09-16.2c-0.17,0.33-1.32,7.6-3.64,16.86c-20.66,10.74-56.53,29.75-56.53,54.55
				c0,8.43,5.62,13.88,13.88,13.88c19.67,0,40-28.6,49.09-65.46c10.08-5.79,19.17-11.9,25.62-19.67c1.98-2.31,2.65-3.31,2.65-4.79
				c0-1.32-0.83-2.31-2.31-2.31c-1.82,0-3.14,1.65-5.12,4.13c-4.13,5.62-11.08,10.41-19.17,15.21c0.99-4.63,1.82-8.26,2.48-11.24
				c2.15-8.26,5.46-12.07,5.46-14.88c0-1.49-1.16-2.65-2.48-2.65c-2.48,0-3.64,0.66-5.79,3.8c-1.82,3.14-21.16,22.15-31.08,22.15
				c-6.45,0-8.26-2.98-8.26-8.93c0-3.97,0.83-8.6,2.31-13.22c10.08-0.99,23.64-4.13,35.21-10.58
				c17.52-10.08,29.42-26.45,29.42-34.55C-888.73-569.75-892.53-573.06-899.64-573.06L-899.64-573.06z M-950.55-524.13
				c2.81-5.79,6.45-11.57,10.91-16.86c11.41-14.22,30.08-24.96,38.68-24.96c3.47,0,5.29,2.31,5.29,5.12
				c0,3.97-10.08,18.68-27.27,28.43C-932.37-527.1-942.29-524.95-950.55-524.13L-950.55-524.13z M-926.09-480.16
				c-5.79,25.46-26.28,54.71-40,54.71c-5.45,0-7.93-3.14-7.93-8.76C-974.02-453.54-941.46-473.05-926.09-480.16L-926.09-480.16z"/>
		</g>
		<g>
			<path d="M-899.66-481.15c-1.39-0.02-3.28-1.92-3.28-3.3c0-1.42,1.95-7.11,5.09-14.85c3.25-7.71,5.26-13.07,5.97-15.94
				c1.2-4.11,2.28-5.57,4.14-5.57c1.38,0,2.64,0.94,2.64,1.98c0,0.97-0.66,2.69-1.25,4.21c-0.57,1.49-1.07,2.77-1.07,3.55
				c0,0.27,0,1,0.83,1c0.87,0,1.45-0.58,2.34-1.47c6.52-6.88,11.05-9.94,14.69-9.94c2.71,0,5.45,1.63,5.45,5.29
				c0,4.55-1.39,9.42-5.29,9.42c-1.25,0-2.64-1.13-2.64-2.64c0-0.88,0.39-1.93,0.7-2.77c0.26-0.7,0.46-1.26,0.46-1.69
				c0-0.76-0.52-1.66-1.99-1.66c-2.77,0-13.91,11.23-18.93,19.07c-1.8,2.81-3.37,6.33-4.76,9.44
				C-897.67-484.51-899.07-481.39-899.66-481.15z"/>
			<path class="st2" d="M-869.55-520.98c2.46,0,4.95,1.48,4.95,4.79c0,4.31-1.26,8.92-4.79,8.92c-0.99,0-2.14-0.94-2.14-2.14
				c0-0.79,0.37-1.79,0.66-2.6c0.28-0.75,0.49-1.34,0.49-1.86c0-1.07-0.77-2.16-2.49-2.16c-3.18,0-14.59,11.86-19.36,19.31
				c-1.82,2.84-3.4,6.38-4.79,9.5c-0.99,2.22-2.21,4.95-2.81,5.56c-1.1-0.16-2.62-1.75-2.62-2.79c0-1.34,1.98-7.09,5.05-14.65
				c3.26-7.74,5.28-13.13,5.99-15.98c1.28-4.37,2.31-5.23,3.67-5.23c1.19,0,2.14,0.81,2.14,1.48c0,0.88-0.67,2.63-1.21,4.03
				c-0.59,1.53-1.1,2.86-1.1,3.73c0,1.35,0.93,1.5,1.33,1.5c1.08,0,1.79-0.71,2.71-1.63C-877.46-517.96-873.04-520.98-869.55-520.98
				 M-869.55-521.98c-4.13,0-8.93,3.64-15.04,10.08c-0.83,0.83-1.32,1.32-1.98,1.32c-0.33,0-0.33-0.17-0.33-0.5
				c0-1.49,2.31-5.79,2.31-7.77c0-1.32-1.49-2.48-3.14-2.48c-2.31,0-3.47,1.98-4.63,5.95c-0.83,3.31-3.31,9.59-5.95,15.87
				c-2.48,6.12-5.12,13.22-5.12,15.04c0,1.65,2.15,3.8,3.8,3.8c1.49,0,4.46-9.59,8.27-15.54c5.29-8.27,16.2-18.84,18.51-18.84
				c0.99,0,1.49,0.5,1.49,1.16c0,0.83-1.16,2.81-1.16,4.46c0,1.82,1.65,3.14,3.14,3.14c4.13,0,5.79-4.79,5.79-9.92
				C-863.6-519.99-866.41-521.98-869.55-521.98L-869.55-521.98z"/>
		</g>
		<g>
			<path d="M-863.77-481.15c-1.36,0-4.46-2.25-4.46-5.95c0-7.63,3.85-15.87,10.56-22.6c6.25-6.27,14.11-10.21,20.52-10.29
				c1.96,0,3.91,1.68,5.2,2.79c0.84,0.72,1.19,1.01,1.57,1.01c0.78,0,1.34-0.7,1.93-1.45c0.75-0.95,1.61-2.03,3.03-2.03
				c2.27,0,3.8,1.19,3.8,2.97c0,1.16-1.62,3.8-3.49,6.87c-1.33,2.17-2.83,4.64-4.22,7.28c-1.95,3.58-3.03,7.01-3.03,9.65
				c0,2.76,1.02,4.47,2.65,4.47c7.58,0,19.97-15.58,22.38-18.71c1.79-2.44,3.17-3.94,4.56-3.94c1.22,0,1.81,0.59,1.81,1.81
				c0,1.28-0.51,2.11-2.37,4.48c-8.93,10.61-21.17,21.96-28.7,21.96c-5.02,0-7.27-3.65-7.27-7.27c0-0.93,0.09-2,0.18-3.04
				c0.08-0.95,0.15-1.85,0.15-2.58c0-1.11,0-1.99-0.83-1.99c-0.82,0-1.87,1.01-4.19,3.3c-1.01,0.99-2.15,2.12-3.42,3.27
				C-855.4-484.13-860.3-481.15-863.77-481.15z M-839.47-514.71c-7.45,0-22.15,16.02-22.15,24.14c0,1.23,0.85,2.48,2.48,2.48
				c3.24,0,24.8-19.11,24.8-21.99c0-0.72-0.76-0.92-1.37-1.08c-1.01-0.26-1.44-0.47-1.44-1.07
				C-837.15-513.73-838.06-514.71-839.47-514.71z"/>
			<path class="st2" d="M-837.15-519.49c1.78,0,3.72,1.67,4.88,2.67c0.88,0.75,1.32,1.13,1.9,1.13c1.02,0,1.68-0.83,2.32-1.63
				c0.72-0.9,1.46-1.84,2.64-1.84c2,0,3.3,0.97,3.3,2.47c0,1.01-1.66,3.73-3.42,6.61c-1.33,2.18-2.84,4.65-4.23,7.29
				c-2,3.66-3.1,7.18-3.1,9.9c0,3.06,1.21,4.97,3.15,4.97c2.94,0,6.84-2.2,11.6-6.54c4.82-4.39,9.07-9.63,11.19-12.38
				c1.64-2.24,2.97-3.72,4.15-3.72c0.95,0,1.31,0.37,1.31,1.31c0,1.13-0.48,1.91-2.24,4.15c-8.87,10.54-20.97,21.79-28.33,21.79
				c-5,0-6.77-3.65-6.77-6.77c0-0.91,0.09-1.97,0.17-3c0.08-0.96,0.16-1.87,0.16-2.62c0-1.11,0-2.49-1.33-2.49
				c-1.01,0-2.06,0.99-4.54,3.45c-1,0.99-2.14,2.11-3.39,3.25c-7.9,6.89-12.7,9.84-16.04,9.84c-0.99,0-3.96-1.93-3.96-5.45
				C-867.73-503.29-850.22-519.33-837.15-519.49 M-859.14-487.59c2.35,0,11.2-7.61,13.86-9.94c4.27-3.75,11.44-10.36,11.44-12.55
				c0-1.11-1.09-1.39-1.75-1.56c-0.96-0.25-1.06-0.37-1.06-0.59c0-1.78-1.13-2.98-2.82-2.98c-7.83,0-22.65,16.12-22.65,24.64
				C-862.12-489.09-861.1-487.59-859.14-487.59 M-837.16-520.49c-13.55,0.17-31.57,16.53-31.57,33.39c0,3.97,3.31,6.45,4.96,6.45
				c3.8,0,8.93-3.31,16.7-10.08c3.64-3.31,6.28-6.45,7.27-6.45c0.33,0,0.33,0.5,0.33,1.49c0,1.49-0.33,3.8-0.33,5.62
				c0,4.13,2.64,7.77,7.77,7.77c8.26,0,21.16-12.73,29.09-22.15c1.82-2.31,2.48-3.31,2.48-4.79c0-1.32-0.66-2.31-2.31-2.31
				c-1.65,0-3.14,1.65-4.96,4.13c-6.12,7.93-16.03,18.51-21.98,18.51c-1.49,0-2.15-1.82-2.15-3.97c0-2.48,0.99-5.79,2.98-9.42
				c3.47-6.61,7.77-12.23,7.77-14.38c0-1.98-1.65-3.47-4.3-3.47c-2.81,0-3.64,3.47-4.96,3.47
				C-831.04-516.69-834.01-520.49-837.16-520.49L-837.16-520.49z M-859.14-488.59c-1.32,0-1.98-0.99-1.98-1.98
				c0-8.1,14.55-23.64,21.65-23.64c1.32,0,1.82,0.99,1.82,1.98c0,1.82,2.81,1.32,2.81,2.15
				C-834.84-507.27-856.33-488.59-859.14-488.59L-859.14-488.59z"/>
		</g>
		<g>
			<path d="M-806.08-481.32c-3.51,0-9.09-2.6-9.09-9.58c0-10.11,14.8-29.09,27.93-29.09c3.35,0,6.94,3.59,6.94,6.11
				c0,4.58-4.74,8.59-7.6,8.59c-0.96,0-1.81-0.18-1.81-2.31c0-0.88,0.76-1.43,1.64-2.06c1.01-0.73,2.16-1.55,2.16-3.07
				c0-0.88-0.67-1.82-2.15-1.82c-7.24,0-20.5,13.41-20.5,22.82c0,2.52,1.17,5.46,4.47,5.46c6.64,0,20.85-6.47,31.64-20.86
				c1.89-2.36,3.15-3.93,4.72-3.93c1.14,0,1.81,0.68,1.81,1.81c0,1.31-0.6,2.22-2.52,4.47
				C-775.63-496.06-791.64-481.32-806.08-481.32z"/>
			<path class="st2" d="M-787.24-519.49c3.05,0,6.44,3.34,6.44,5.61c0,4.17-4.43,8.09-7.1,8.09c-0.73,0-1.31,0-1.31-1.81
				c0-0.59,0.55-1.01,1.43-1.65c1.05-0.76,2.37-1.7,2.37-3.47c0-1.12-0.83-2.32-2.65-2.32c-7.6,0-21,13.48-21,23.32
				c0,2.97,1.54,5.96,4.97,5.96c11.2,0,25.48-12.32,32.02-21.04c1.81-2.26,3-3.76,4.34-3.76c1.09,0,1.31,0.71,1.31,1.31
				c0,1.1-0.43,1.84-2.42,4.16c-2.16,2.62-8.09,9.36-16.39,15.17c-7.57,5.3-14.78,8.1-20.85,8.1c-2.23,0-8.59-1.67-8.59-9.08
				c0-4.94,3.56-12.07,9.06-18.15C-799.7-515.59-792.83-519.49-787.24-519.49 M-787.24-520.49c-13.06,0-28.43,18.84-28.43,29.59
				c0,7.44,6.12,10.08,9.59,10.08c14.22,0,30.25-14.22,38.02-23.64c1.98-2.31,2.65-3.31,2.65-4.79c0-1.32-0.83-2.31-2.31-2.31
				c-1.82,0-3.14,1.65-5.12,4.13c-5.95,7.93-20.17,20.66-31.24,20.66c-2.81,0-3.97-2.48-3.97-4.96c0-9.42,13.22-22.32,20-22.32
				c1.16,0,1.65,0.66,1.65,1.32c0,2.48-3.8,2.81-3.8,5.12c0,2.48,1.16,2.81,2.31,2.81c3.14,0,8.1-4.3,8.1-9.09
				C-779.8-516.69-783.6-520.49-787.24-520.49L-787.24-520.49z"/>
		</g>
		<g>
			<path d="M-769.22-480.99c-5.06,0-10.41-5.1-10.41-9.91c0-0.88-0.13-1.46-0.26-2.01c-0.12-0.52-0.24-1.02-0.24-1.79
				c0-1.28,1.17-2.92,2.51-3.51l0.18-0.08l0.08-0.18c6.9-15.99,17.86-21.68,25.82-21.68c2.83,0,6.28,2.44,6.28,5.29
				c0,3.69-2.94,7.97-8.28,12.06c-4.76,3.65-10.88,6.63-15.96,7.78c-3.28,0.73-3.53,1.98-3.53,3.79c0,1.89,1.14,5.46,5.46,5.46
				c4.85,0,9.28-3.45,12.21-5.73c0.8-0.6,1.46-1.17,2.05-1.67c1.31-1.12,2.18-1.86,3.27-1.86c1.14,0,1.81,0.68,1.81,1.81
				c0,1.21-0.79,2.24-3.11,4.07l-0.37,0.29C-756.53-485.17-761.98-480.99-769.22-480.99z M-753.52-514.71
				c-5.63,0-15.06,11.22-17.28,14.78l-0.49,0.79l0.93-0.03c5.78-0.17,19.33-9.55,19.33-13.39
				C-751.03-514.45-752.29-514.71-753.52-514.71z"/>
			<path class="st2" d="M-751.53-519.66c2.6,0,5.78,2.21,5.78,4.79c0,7.39-13.34,16.98-23.85,19.36c-3.32,0.74-3.92,2.02-3.92,4.28
				c0,2.4,1.59,5.96,5.96,5.96c5.02,0,9.53-3.51,12.5-5.82c0.82-0.61,1.49-1.19,2.08-1.69c1.37-1.18,2.07-1.74,2.94-1.74
				c1.09,0,1.31,0.71,1.31,1.31c0,1.03-0.74,1.96-2.91,3.67l-0.38,0.29c-4.75,3.64-10.12,7.77-17.2,7.77
				c-4.82,0-9.91-4.84-9.91-9.41c0-0.94-0.15-1.57-0.27-2.13c-0.12-0.52-0.22-0.96-0.22-1.68c0-1.06,1.08-2.55,2.22-3.05l0.36-0.16
				l0.15-0.36c3.04-7.04,7.26-12.74,12.21-16.48C-760.51-517.92-755.84-519.66-751.53-519.66 M-772.21-498.61l1.87-0.05
				c3.37-0.1,8.47-2.85,12.13-5.39c1.8-1.25,7.68-5.56,7.68-8.51c0-2.65-2.25-2.65-2.98-2.65c-5.82,0-15.45,11.4-17.71,15.02
				L-772.21-498.61 M-751.53-520.66c-8.43,0-19.5,6.28-26.28,21.98c-1.49,0.66-2.81,2.48-2.81,3.97c0,1.65,0.5,2.15,0.5,3.8
				c0,5.29,5.79,10.41,10.91,10.41c7.6,0,13.22-4.46,18.18-8.27c2.31-1.82,3.31-2.98,3.31-4.46c0-1.32-0.83-2.31-2.31-2.31
				c-1.82,0-2.97,1.65-5.62,3.64c-2.97,2.31-7.27,5.62-11.9,5.62c-3.97,0-4.96-3.31-4.96-4.96c0-1.65,0.17-2.65,3.14-3.31
				c10.25-2.31,24.63-11.9,24.63-20.33C-744.75-518.01-748.39-520.66-751.53-520.66L-751.53-520.66z M-770.38-499.66
				c2.48-3.97,11.74-14.55,16.86-14.55c1.32,0,1.98,0.33,1.98,1.65C-751.53-509.09-764.59-499.83-770.38-499.66L-770.38-499.66z"/>
		</g>
		<g>
			<path d="M-711.2-481.48c-6.26,0-6.44-5.63-6.44-6.28c0-3.87,2.3-7.91,4.73-12.19c2.63-4.63,5.35-9.43,5.35-14.42
				c0-4.11,1.19-6.11,3.63-6.11c2.51,0,2.97,1.56,2.97,4.62c0,5.6-3.55,12.03-6.4,17.2c-2.07,3.74-3.85,6.98-3.85,9.08
				c0,1.21,0.26,2.81,2.48,2.81c3.1,0,14.21-8.19,19.26-15.93c0.87-1.45,1.79-3.1,2.76-4.85c1.8-3.24,3.66-6.58,5.15-8.5
				c1.53-2.05,3.04-3.11,3.74-3.11c2,0,2.97,0.86,2.97,2.64c-0.01,0.34-0.72,2.01-1.88,3.5c-1.48,2.07-4.13,6.16-5.38,10.42
				c-1.44,4.49-2.17,7.99-2.17,10.39c0,2.69,0.99,4.3,2.65,4.3c4.2,0,14.75-11.23,20.89-19.2c1.79-2.44,3.17-3.94,4.56-3.94
				c1.22,0,1.81,0.59,1.81,1.81c0,1.28-0.51,2.11-2.37,4.48c-6.5,7.72-18.63,22.12-26.05,22.12c-4.28,0-6.44-2.72-6.44-8.1
				c0-0.98,0.1-1.88,0.19-2.67c0.07-0.64,0.14-1.25,0.14-1.79v-1.21l-0.85,0.85C-695.77-489.51-704.57-481.48-711.2-481.48z"/>
			<path class="st2" d="M-703.93-519.99c1.94,0,2.47,0.89,2.47,4.12c0,5.48-3.51,11.84-6.34,16.96c-2.19,3.96-3.91,7.09-3.91,9.32
				c0,2.2,1,3.31,2.98,3.31c3.61,0,14.8-8.67,19.7-16.19c0.86-1.44,1.79-3.1,2.76-4.85c1.79-3.22,3.64-6.55,5.12-8.45
				c1.63-2.17,2.97-2.91,3.33-2.91c1.71,0,2.47,0.66,2.47,2.1c-0.05,0.35-0.71,1.87-1.8,3.27c-1.49,2.08-4.17,6.23-5.43,10.53
				c-1.46,4.55-2.2,8.1-2.2,10.55c0,4.46,2.41,4.8,3.15,4.8c5.17,0,17.41-14.37,21.3-19.42c1.64-2.24,2.97-3.72,4.15-3.72
				c0.95,0,1.31,0.37,1.31,1.31c0,1.13-0.48,1.91-2.24,4.15c-6,7.13-18.49,21.96-25.68,21.96c-4,0-5.94-2.48-5.94-7.6
				c0-0.96,0.1-1.84,0.19-2.62c0.07-0.66,0.14-1.28,0.14-1.85v-2.41l-1.71,1.71c-5.98,5.98-14.67,13.92-21.11,13.92
				c-5.66,0-5.94-4.81-5.94-5.78c0-3.73,2.27-7.72,4.66-11.94c2.66-4.69,5.42-9.54,5.42-14.67
				C-707.06-519.99-704.78-519.99-703.93-519.99 M-703.93-520.99c-3.14,0-4.13,2.81-4.13,6.61c0,9.42-10.08,18.35-10.08,26.61
				c0,2.64,1.49,6.78,6.94,6.78c6.94,0,15.87-8.27,21.82-14.22c0,1.16-0.33,2.64-0.33,4.46c0,3.97,1.16,8.6,6.94,8.6
				c7.27,0,18.51-12.89,26.45-22.32c1.82-2.31,2.48-3.31,2.48-4.79c0-1.32-0.66-2.31-2.31-2.31c-1.65,0-3.14,1.65-4.96,4.13
				c-6.12,7.93-16.53,19.01-20.5,19.01c-1.32,0-2.15-1.32-2.15-3.8c0-2.48,0.83-6.12,2.15-10.25c1.16-3.97,3.64-7.93,5.29-10.25
				c1.16-1.49,1.98-3.31,1.98-3.8c0-1.49-0.66-3.14-3.47-3.14c-0.99,0-2.65,1.32-4.13,3.31c-2.31,2.98-5.46,9.26-7.93,13.39
				c-4.96,7.6-15.87,15.7-18.84,15.7c-1.65,0-1.98-0.99-1.98-2.31c0-4.79,10.25-16.53,10.25-26.28
				C-700.46-518.67-700.79-520.99-703.93-520.99L-703.93-520.99z"/>
		</g>
		<g>
			<path d="M-677.31-432.56c-2.17,0-3.47-1.85-3.47-4.95c0-13.67,7.23-35.9,11.54-47.93c3.56-10.17,9.82-24.27,11.71-28.05
				c1.83-3.38,4.01-7,6.66-7c1.29,0,3.96,0.52,3.96,2.15c0,1.27-1.44,3.33-2.96,5.51c-0.83,1.19-1.69,2.42-2.42,3.66
				c-0.14,0.24-0.27,0.46-0.38,0.66c-0.49,0.82-0.84,1.42-0.84,2.08c0,0.67,0.42,1.16,1,1.16h0.22l0.15-0.17
				c10.93-12.28,20.09-15.04,22.44-15.04c2.26,0,5.45,2.26,5.45,7.27c0,8.33-12.14,32.39-30.91,32.39c-2.26,0-3.97-1.16-4.99-1.85
				c-0.58-0.4-0.94-0.63-1.29-0.63c-3.81,0-12.73,28.27-12.73,40.34c0,2.03,0.27,3.27,0.51,4.37c0.17,0.78,0.32,1.45,0.32,2.25
				C-673.35-434.82-675.44-432.56-677.31-432.56z M-633.84-513.72c-6.22,0-23.15,15.35-26.26,23.8l-0.08,0.23l0.13,0.21
				c0.07,0.12,1.84,2.88,5.55,2.88c14.14,0,23.64-20.12,23.64-24.3C-630.86-512.3-631.88-513.72-633.84-513.72z"/>
			<path class="st2" d="M-629.71-519.99c2,0,4.95,2.15,4.95,6.77c0,4.21-2.89,12.19-8.43,19.3c-8.52,10.95-17.43,12.59-21.98,12.59
				c-2.11,0-3.68-1.06-4.71-1.76c-0.64-0.43-1.06-0.72-1.57-0.72c-0.92,0-2.06,0.62-4.14,5.08c-1.29,2.78-2.75,6.66-4.1,10.95
				c-2.41,7.62-4.98,18.14-4.98,24.81c0,2.08,0.29,3.41,0.52,4.47c0.17,0.78,0.3,1.39,0.3,2.14c0,1.27-1.89,3.3-3.46,3.3
				c-1.86,0-2.97-1.67-2.97-4.45c0-13.6,7.21-35.76,11.52-47.77c3.5-9.99,9.86-24.33,11.67-27.95c2.19-4.05,4.09-6.75,6.23-6.75
				c1.21,0,3.46,0.48,3.46,1.65c0,1.11-1.46,3.2-2.87,5.22c-0.83,1.2-1.7,2.43-2.45,3.71c-0.13,0.23-0.26,0.45-0.38,0.64
				c-0.51,0.86-0.91,1.53-0.91,2.33c0,0.95,0.64,1.66,1.5,1.66h0.45l0.3-0.33C-640.96-517.25-631.99-519.99-629.71-519.99
				 M-654.5-486.1c14.51,0,24.14-20,24.14-24.8c0-1.65-1.2-3.31-3.48-3.31c-6.34,0-23.58,15.56-26.72,24.13l-0.17,0.46l0.26,0.42
				C-660.39-489.09-658.48-486.1-654.5-486.1 M-629.71-520.99c-2.81,0-12.07,3.14-22.81,15.21c-0.33,0-0.5-0.33-0.5-0.66
				c0-0.66,0.5-1.32,1.16-2.48c2.15-3.64,5.46-7.27,5.46-9.42c0-1.98-2.81-2.65-4.46-2.65c-2.81,0-4.96,3.31-7.11,7.27
				c-1.98,3.97-8.27,18.18-11.74,28.1c-3.97,11.08-11.57,33.89-11.57,48.1c0,3.97,1.98,5.45,3.97,5.45c2.15,0,4.46-2.48,4.46-4.3
				c0-1.98-0.83-3.14-0.83-6.61c0-12.23,9.09-39.84,12.23-39.84c0.66,0,2.81,2.48,6.28,2.48c18.84,0,31.41-23.64,31.41-32.89
				C-623.75-518.34-627.06-520.99-629.71-520.99L-629.71-520.99z M-654.5-487.1c-3.47,0-5.12-2.65-5.12-2.65
				c2.98-8.1,19.84-23.47,25.79-23.47c1.65,0,2.48,1.16,2.48,2.31C-631.36-506.61-640.78-487.1-654.5-487.1L-654.5-487.1z"/>
		</g>
		<g>
			<path d="M-613.17-480.82c-4.22,0-8.76-3.15-8.76-10.08c0-14.65,12.09-29.58,23.96-29.58c5.47,0,8.43,2.55,8.43,4.96
				c0,1.39,0,5.62,3.14,5.62c4.65,0,9.1-2.1,12.04-3.49c1.23-0.58,2.4-1.13,2.83-1.13c1.43,0,2.48,0.97,2.48,2.31
				c0,1.07-1.27,2.91-7.31,5.66c-5.73,2.63-12.81,2.77-14.17,2.77h-0.35l-0.12,0.33C-592.86-498.15-599.95-480.82-613.17-480.82z
				 M-598.96-514.05c-7.8,0-17.03,12.55-17.03,23.15c0,3.44,2.39,5.29,4.63,5.29c6.66,0,15.38-14.89,15.38-20.34
				c0-0.41-0.34-0.67-0.81-1.02c-0.7-0.53-1.67-1.25-1.67-2.45c0-0.96,0.18-1.81,0.32-2.49c0.1-0.47,0.18-0.84,0.18-1.15
				C-597.96-513.66-598.35-514.05-598.96-514.05z"/>
			<path class="st2" d="M-597.97-519.99c5.77,0,7.93,2.73,7.93,4.46c0,4.06,1.23,6.12,3.64,6.12c4.76,0,9.27-2.13,12.26-3.54
				c1.01-0.48,2.27-1.08,2.62-1.09c1.14,0,1.98,0.76,1.98,1.81c0,0.61-0.68,2.33-7.02,5.21c-5.63,2.59-12.62,2.72-13.96,2.72h-0.71
				l-0.23,0.67c-1.17,3.35-3.79,9.75-8.11,14.89c-4.13,4.92-8.7,7.41-13.59,7.41c-2.16,0-4.17-0.83-5.65-2.33
				c-1.7-1.72-2.6-4.23-2.6-7.25c0-6.98,2.79-14.33,7.66-20.17C-609.11-516.65-603.21-519.99-597.97-519.99 M-611.36-485.11
				c4.33,0,8.55-5.33,10.69-8.5c3.06-4.55,5.19-9.62,5.19-12.34c0-0.66-0.49-1.03-1.01-1.42c-0.8-0.6-1.47-1.17-1.47-2.05
				c0-0.91,0.17-1.73,0.31-2.38c0.1-0.5,0.19-0.89,0.19-1.25c0-0.88-0.62-1.5-1.5-1.5c-8.03,0-17.53,12.82-17.53,23.65
				C-616.49-487.14-613.84-485.11-611.36-485.11 M-597.97-520.99c-11.57,0-24.46,14.71-24.46,30.08c0,7.11,4.63,10.58,9.26,10.58
				c11.57,0,19.17-13.06,22.65-22.98c0.66,0,8.26,0,14.38-2.81c5.46-2.48,7.6-4.46,7.6-6.12s-1.32-2.81-2.98-2.81
				c-1.65,0-8.1,4.63-14.88,4.63c-2.64,0-2.64-3.8-2.64-5.12C-589.04-518.01-591.85-520.99-597.97-520.99L-597.97-520.99z
				 M-611.36-486.11c-2.15,0-4.13-1.82-4.13-4.79c0-10.74,9.42-22.65,16.53-22.65c0.33,0,0.5,0.17,0.5,0.5c0,0.66-0.5,1.98-0.5,3.64
				c0,2.15,2.48,2.98,2.48,3.47C-596.48-500.99-604.91-486.11-611.36-486.11L-611.36-486.11z"/>
		</g>
		<g>
			<path d="M-576.81-480c-2.36,0-4.46-1.57-4.46-2.81c0-1.29,1.93-7.18,3.97-13.42c1.72-5.27,3.68-11.25,4.94-15.87l0.07-0.24
				c2.38-8.57,3.18-11.46,7.72-11.46c0.59,0,2.14,0.66,2.14,2.15c0,2.55-1.9,8.07-3.43,12.51c-1.25,3.64-2.02,5.92-2.02,6.83
				c0,0.73,0,1.49,0.67,1.49h0.24l0.15-0.18c12.3-14.99,21.13-18.99,24.41-18.99c3.06,0,5.45,2.47,5.45,5.62
				c0,1.63-0.25,4.56-0.49,7.4c-0.25,2.85-0.5,5.81-0.5,7.48c0,5.64,0.61,11.41,5.13,11.41c2.54,0,5.65-2.14,7.48-4.13
				c0.45-0.41,0.91-0.87,1.35-1.3c1.45-1.43,2.7-2.67,3.91-2.67c0.83,0,1.81,0.29,1.81,1.65c0,1.23-0.17,2.27-2.33,4.44
				c-3.71,3.52-8.24,7.29-15.02,7.29c-6.2,0-9.09-4.94-9.09-15.53c0-1.54,0.13-3.75,0.26-5.89c0.12-1.97,0.23-3.82,0.23-5.02
				c0-0.86,0-3.15-2.48-3.15c-5.71,0-19.34,17.25-23.39,23.19c-1.16,1.63-2.1,3.28-2.93,4.74C-574.47-481.97-575.6-480-576.81-480z"
				/>
			<path class="st2" d="M-564.58-523.29c0.29,0,1.64,0.43,1.64,1.65c0,2.47-1.89,7.94-3.4,12.34c-1.31,3.8-2.05,6-2.05,7
				c0,0.7,0,1.99,1.17,1.99h0.47l0.3-0.37c12.18-14.85,20.83-18.81,24.02-18.81c2.78,0,4.95,2.25,4.95,5.12
				c0,1.61-0.25,4.53-0.49,7.35c-0.25,2.87-0.5,5.83-0.5,7.52c0,5.89,0.67,11.91,5.63,11.91c2.69,0,5.86-2.13,7.82-4.26
				c0.48-0.44,0.92-0.88,1.36-1.31c1.31-1.3,2.55-2.53,3.55-2.53c1.17,0,1.31,0.61,1.31,1.15c0,1.15-0.15,2.05-2.17,4.07
				c-3.65,3.47-8.09,7.16-14.68,7.16c-5.86,0-8.59-4.78-8.59-15.03c0-1.53,0.13-3.73,0.26-5.86c0.12-1.97,0.23-3.84,0.23-5.05
				c0-2.42-1-3.65-2.98-3.65c-3.86,0-10.2,6.83-12.28,9.08c-4.56,4.92-9.07,10.74-11.51,14.31c-1.19,1.66-2.13,3.32-2.97,4.79
				c-1.23,2.17-2.4,4.21-3.33,4.21c-2.15,0-3.96-1.42-3.96-2.31c0-1.21,2-7.34,3.94-13.27c1.72-5.28,3.68-11.26,4.95-15.89
				l0.07-0.24C-569.32-521.17-568.58-523.29-564.58-523.29 M-564.58-524.29c-4.96,0-5.79,3.14-8.27,12.07
				c-2.81,10.25-8.93,26.94-8.93,29.42c0,1.65,2.48,3.31,4.96,3.31c2.31,0,3.8-4.79,7.11-9.42c4.96-7.27,17.85-22.98,22.98-22.98
				c1.65,0,1.98,1.16,1.98,2.65c0,2.48-0.5,7.93-0.5,10.91c0,7.11,1.16,16.03,9.59,16.03c7.27,0,12.07-4.3,15.37-7.44
				c2.15-2.15,2.48-3.31,2.48-4.79c0-1.32-0.83-2.15-2.31-2.15c-1.82,0-3.47,2.15-5.62,4.13c-1.82,1.98-4.79,3.97-7.11,3.97
				c-3.47,0-4.63-3.8-4.63-10.91c0-3.31,0.99-11.57,0.99-14.88c0-3.47-2.64-6.12-5.95-6.12c-3.8,0-12.73,4.46-24.79,19.17
				c-0.17,0-0.17-0.5-0.17-0.99c0-2.15,5.46-14.88,5.46-19.34C-561.93-523.47-563.75-524.29-564.58-524.29L-564.58-524.29z"/>
		</g>
		<g>
			<path d="M-496.14-419.83c-8.13,0-13.38-5.25-13.38-13.38c0-24.85,36.6-43.88,56.26-54.11l0.2-0.1l0.05-0.22
				c1.62-6.47,2.66-11.9,3.21-14.82c0.19-0.98,0.35-1.83,0.4-1.97l1.6-3.2l-2.43,2.68c-4.95,5.42-18.91,16.04-28.72,16.04
				c-8.38,0-13.39-5.37-13.39-14.38c0-4.51,0.71-9.02,2.12-13.4l0.21-0.65h-0.69c-7.33,0-8.43-2.59-8.43-4.13
				c0-0.62,0.24-2.64,3.3-2.64c1.2,0,2.43,0.19,3.72,0.39c1.16,0.18,2.36,0.36,3.69,0.44l0.35,0.02l0.14-0.33
				c3.35-7.94,7.72-15.19,12.98-21.53c12.33-14.87,33.35-27.42,45.9-27.42c7.1,0,10.41,3.26,10.41,10.24
				c0,9.92-15.4,26.19-29.17,34.11c-13.91,7.75-29.12,9.94-35.01,10.52l-0.33,0.03l-0.1,0.31c-1.53,4.76-2.34,9.38-2.34,13.38
				c0,5.66,1.49,9.43,8.76,9.43c10.16,0,29.56-19.03,31.51-22.4c2.09-3.06,3.12-3.55,5.35-3.55c1.07,0,1.98,0.98,1.98,2.15
				c0,1.2-0.69,2.67-1.65,4.71c-1.11,2.36-2.63,5.58-3.79,10.04l-0.47,2.1c-0.57,2.56-1.24,5.56-2.02,9.16l-0.24,1.12l0.98-0.58
				c7.04-4.17,14.84-9.25,19.32-15.34c1.89-2.36,3.14-3.93,4.72-3.93c1.14,0,1.81,0.68,1.81,1.81c0,1.31-0.6,2.22-2.52,4.47
				c-6.89,8.3-16.75,14.55-25.49,19.56l-0.19,0.11l-0.05,0.21C-456.84-447.2-477.28-419.83-496.14-419.83z M-455.69-480.61
				c-16.68,7.71-48.23,27.34-48.23,46.41c0,6.06,2.92,9.26,8.43,9.26c13.59,0,34.4-28.32,40.49-55.1l0.23-0.99L-455.69-480.61z
				 M-430.36-566.45c-10.64,0-29.74,13.52-39.07,25.15c-4.27,5.06-7.97,10.77-10.97,16.96l-0.39,0.8l0.89-0.09
				c10.47-1.05,19.82-3.85,27.8-8.33c16.81-9.54,27.53-24.32,27.53-28.87C-424.57-564.19-426.89-566.45-430.36-566.45z"/>
			<path class="st2" d="M-429.03-572.06c6.76,0,9.91,3.1,9.91,9.74c0,3.85-2.96,9.79-7.92,15.9c-5.59,6.89-13.05,13.2-20.99,17.77
				c-13.83,7.71-28.96,9.88-34.82,10.46l-0.65,0.06l-0.2,0.62c-1.55,4.81-2.36,9.49-2.36,13.53c0,7.05,2.68,9.93,9.26,9.93
				c10.28,0,29.84-19.11,31.92-22.61c1.99-2.9,2.89-3.34,4.94-3.34c0.8,0,1.48,0.75,1.48,1.65c0,1.09-0.67,2.52-1.6,4.5
				c-1.12,2.37-2.65,5.62-3.83,10.16l-0.46,2.08c-0.58,2.61-1.24,5.56-2.02,9.17l-0.48,2.23l1.97-1.16
				c7.08-4.19,14.94-9.31,19.45-15.45c1.81-2.26,3-3.75,4.34-3.75c1.09,0,1.31,0.71,1.31,1.31c0,1.1-0.43,1.84-2.41,4.15
				c-6.83,8.24-16.65,14.45-25.35,19.44l-0.37,0.21l-0.1,0.42c-9.25,37.49-29.48,64.7-48.12,64.7c-7.83,0-12.88-5.06-12.88-12.88
				c0-24.55,36.42-43.49,55.99-53.66l0.4-0.21l0.11-0.44c1.62-6.48,2.66-11.93,3.22-14.85c0.17-0.88,0.32-1.65,0.37-1.88l3.16-6.34
				l-4.83,5.28c-4.9,5.36-18.69,15.87-28.35,15.87c-8.19,0-12.89-5.06-12.89-13.88c0-4.45,0.71-8.91,2.1-13.25l0.42-1.31h-1.37
				c-5.04,0-7.93-1.32-7.93-3.63c0-0.64,0.27-2.14,2.8-2.14c1.16,0,2.37,0.18,3.65,0.38c1.17,0.18,2.38,0.36,3.73,0.44l0.71,0.04
				l0.27-0.65c3.33-7.9,7.68-15.1,12.91-21.4C-461.03-561.11-440.1-572.06-429.03-572.06 M-481.63-522.95l1.78-0.18
				c10.54-1.05,19.96-3.88,28-8.39c16.96-9.62,27.78-24.65,27.78-29.3c0-3.66-2.53-6.12-6.29-6.12c-9.03,0-27.83,10.83-39.44,25.32
				c-4.31,5.1-8.02,10.85-11.05,17.07L-481.63-522.95 M-495.48-424.44c15.01,0,35.42-31.03,40.98-55.49l0.45-1.98l-1.85,0.85
				c-3.9,1.8-17.58,8.46-29.94,18.52c-12.32,10.02-18.57,19.56-18.57,28.34C-504.42-426.14-499.56-424.44-495.48-424.44
				 M-429.03-573.06c-12.23,0-33.39,12.07-46.28,27.6c-5.62,6.78-9.92,14.22-13.06,21.65c-2.81-0.17-5.12-0.83-7.44-0.83
				c-2.81,0-3.8,1.65-3.8,3.14c0,1.82,1.32,4.63,8.93,4.63c-1.49,4.63-2.15,9.26-2.15,13.55c0,9.92,5.79,14.88,13.89,14.88
				c9.92,0,23.8-10.41,29.09-16.2c-0.17,0.33-1.32,7.6-3.64,16.86c-20.66,10.74-56.53,29.75-56.53,54.55
				c0,8.43,5.62,13.88,13.88,13.88c19.67,0,40-28.6,49.09-65.46c10.08-5.79,19.17-11.9,25.62-19.67c1.98-2.31,2.64-3.31,2.64-4.79
				c0-1.32-0.83-2.31-2.31-2.31c-1.82,0-3.14,1.65-5.12,4.13c-4.13,5.62-11.07,10.41-19.17,15.21c0.99-4.63,1.82-8.26,2.48-11.24
				c2.15-8.26,5.45-12.07,5.45-14.88c0-1.49-1.16-2.65-2.48-2.65c-2.48,0-3.64,0.66-5.79,3.8c-1.82,3.14-21.16,22.15-31.08,22.15
				c-6.45,0-8.26-2.98-8.26-8.93c0-3.97,0.83-8.6,2.31-13.22c10.08-0.99,23.64-4.13,35.21-10.58
				c17.52-10.08,29.42-26.45,29.42-34.55C-418.12-569.75-421.93-573.06-429.03-573.06L-429.03-573.06z M-479.95-524.13
				c2.81-5.79,6.45-11.57,10.91-16.86c11.41-14.22,30.08-24.96,38.68-24.96c3.47,0,5.29,2.31,5.29,5.12
				c0,3.97-10.08,18.68-27.27,28.43C-461.76-527.1-471.68-524.95-479.95-524.13L-479.95-524.13z M-455.48-480.16
				c-5.79,25.46-26.28,54.71-40,54.71c-5.46,0-7.93-3.14-7.93-8.76C-503.42-453.54-470.85-473.05-455.48-480.16L-455.48-480.16z"/>
		</g>
		<g>
			<path d="M-429.05-481.15c-1.39-0.02-3.28-1.92-3.28-3.3c0-1.42,1.95-7.11,5.09-14.85c3.25-7.71,5.26-13.07,5.97-15.94
				c1.2-4.11,2.28-5.57,4.14-5.57c1.38,0,2.64,0.94,2.64,1.98c0,0.97-0.66,2.69-1.25,4.21c-0.57,1.49-1.07,2.77-1.07,3.55
				c0,0.27,0,1,0.83,1c0.87,0,1.45-0.58,2.34-1.47c6.52-6.88,11.05-9.94,14.69-9.94c2.71,0,5.45,1.63,5.45,5.29
				c0,4.55-1.39,9.42-5.29,9.42c-1.25,0-2.64-1.13-2.64-2.64c0-0.88,0.39-1.93,0.7-2.77c0.26-0.7,0.46-1.26,0.46-1.69
				c0-0.76-0.52-1.66-1.99-1.66c-2.77,0-13.91,11.23-18.93,19.07c-1.8,2.81-3.37,6.33-4.76,9.44
				C-427.07-484.51-428.46-481.39-429.05-481.15z"/>
			<path class="st2" d="M-398.95-520.98c2.28,0,4.95,1.25,4.95,4.79c0,4.31-1.26,8.92-4.79,8.92c-0.99,0-2.14-0.94-2.14-2.14
				c0-0.79,0.37-1.79,0.66-2.6c0.28-0.75,0.49-1.34,0.49-1.86c0-1.07-0.77-2.16-2.49-2.16c-3.18,0-14.59,11.86-19.36,19.31
				c-1.82,2.84-3.4,6.38-4.79,9.51c-0.99,2.22-2.21,4.95-2.81,5.56c-1.1-0.16-2.62-1.75-2.62-2.79c0-1.34,1.98-7.1,5.05-14.65
				c3.26-7.73,5.28-13.12,5.99-15.98c1.28-4.37,2.31-5.23,3.67-5.23c1.19,0,2.14,0.81,2.14,1.48c0,0.88-0.67,2.63-1.21,4.03
				c-0.59,1.53-1.1,2.86-1.1,3.73c0,1.35,0.93,1.5,1.33,1.5c1.08,0,1.79-0.71,2.71-1.63C-406.85-517.96-402.44-520.98-398.95-520.98
				 M-398.95-521.98c-4.13,0-8.93,3.64-15.04,10.08c-0.83,0.83-1.32,1.32-1.98,1.32c-0.33,0-0.33-0.17-0.33-0.5
				c0-1.49,2.31-5.79,2.31-7.77c0-1.32-1.49-2.48-3.14-2.48c-2.31,0-3.47,1.98-4.63,5.95c-0.83,3.31-3.31,9.59-5.95,15.87
				c-2.48,6.12-5.12,13.22-5.12,15.04c0,1.65,2.15,3.8,3.8,3.8c1.49,0,4.46-9.59,8.26-15.54c5.29-8.27,16.2-18.84,18.51-18.84
				c0.99,0,1.49,0.5,1.49,1.16c0,0.83-1.16,2.81-1.16,4.46c0,1.82,1.65,3.14,3.14,3.14c4.13,0,5.79-4.79,5.79-9.92
				C-393-519.99-395.81-521.98-398.95-521.98L-398.95-521.98z"/>
		</g>
		<g>
			<path d="M-393.16-481.15c-1.36,0-4.46-2.25-4.46-5.95c0-7.63,3.85-15.87,10.56-22.6c6.25-6.27,14.11-10.21,20.52-10.29
				c1.96,0,3.91,1.68,5.2,2.79c0.84,0.72,1.19,1.01,1.57,1.01c0.78,0,1.34-0.7,1.93-1.45c0.75-0.95,1.61-2.03,3.03-2.03
				c2.27,0,3.8,1.19,3.8,2.97c0,1.16-1.62,3.81-3.49,6.87c-1.33,2.17-2.83,4.64-4.22,7.27c-1.96,3.58-3.03,7.01-3.03,9.65
				c0,2.76,1.02,4.47,2.65,4.47c7.58,0,19.97-15.58,22.38-18.71c1.79-2.44,3.17-3.94,4.56-3.94c1.22,0,1.81,0.59,1.81,1.81
				c0,1.28-0.51,2.11-2.37,4.48c-8.93,10.61-21.17,21.96-28.7,21.96c-5.02,0-7.27-3.65-7.27-7.27c0-0.93,0.09-2,0.18-3.04
				c0.08-0.95,0.16-1.85,0.16-2.58c0-1.11,0-1.99-0.83-1.99c-0.81,0-1.87,1.01-4.19,3.3c-1.01,1-2.15,2.12-3.42,3.28
				C-384.8-484.13-389.69-481.15-393.16-481.15z M-368.86-514.71c-7.45,0-22.15,16.02-22.15,24.14c0,1.23,0.85,2.48,2.48,2.48
				c3.25,0,24.8-19.11,24.8-21.99c0-0.72-0.76-0.92-1.37-1.08c-1.01-0.26-1.44-0.47-1.44-1.07
				C-366.55-513.73-367.46-514.71-368.86-514.71z"/>
			<path class="st2" d="M-366.54-519.49c1.78,0,3.72,1.67,4.88,2.67c0.88,0.75,1.32,1.13,1.9,1.13c1.02,0,1.68-0.83,2.32-1.63
				c0.72-0.9,1.46-1.84,2.64-1.84c2,0,3.3,0.97,3.3,2.47c0,1.02-1.66,3.73-3.42,6.61c-1.33,2.18-2.84,4.65-4.23,7.29
				c-2,3.66-3.1,7.18-3.1,9.9c0,3.06,1.21,4.97,3.15,4.97c2.94,0,6.84-2.2,11.6-6.54c4.82-4.39,9.07-9.63,11.19-12.38
				c1.64-2.24,2.97-3.72,4.15-3.72c0.95,0,1.31,0.37,1.31,1.31c0,1.13-0.48,1.91-2.24,4.15c-8.87,10.54-20.97,21.79-28.33,21.79
				c-5,0-6.77-3.65-6.77-6.77c0-0.91,0.09-1.97,0.17-3c0.08-0.96,0.16-1.87,0.16-2.62c0-1.11,0-2.49-1.33-2.49
				c-1.01,0-2.06,0.99-4.54,3.45c-1,0.99-2.14,2.12-3.39,3.25c-7.9,6.89-12.7,9.84-16.04,9.84c-0.99,0-3.96-1.93-3.96-5.45
				C-397.12-503.29-379.62-519.33-366.54-519.49 M-388.54-487.59c2.35,0,11.21-7.61,13.86-9.94c4.27-3.75,11.44-10.36,11.44-12.55
				c0-1.11-1.09-1.39-1.75-1.56c-0.96-0.25-1.06-0.37-1.06-0.59c0-1.78-1.13-2.98-2.82-2.98c-7.83,0-22.65,16.12-22.65,24.64
				C-391.52-489.09-390.49-487.59-388.54-487.59 M-366.55-520.49c-13.55,0.17-31.57,16.53-31.57,33.39c0,3.97,3.31,6.45,4.96,6.45
				c3.8,0,8.93-3.31,16.7-10.08c3.64-3.31,6.28-6.45,7.27-6.45c0.33,0,0.33,0.5,0.33,1.49c0,1.49-0.33,3.8-0.33,5.62
				c0,4.13,2.65,7.77,7.77,7.77c8.26,0,21.16-12.73,29.09-22.15c1.82-2.31,2.48-3.31,2.48-4.79c0-1.32-0.66-2.31-2.31-2.31
				s-3.14,1.65-4.96,4.13c-6.12,7.93-16.03,18.51-21.98,18.51c-1.49,0-2.15-1.82-2.15-3.97c0-2.48,0.99-5.79,2.98-9.42
				c3.47-6.61,7.77-12.23,7.77-14.38c0-1.98-1.65-3.47-4.3-3.47c-2.81,0-3.64,3.47-4.96,3.47
				C-360.43-516.69-363.41-520.49-366.55-520.49L-366.55-520.49z M-388.54-488.59c-1.32,0-1.98-0.99-1.98-1.98
				c0-8.1,14.55-23.64,21.65-23.64c1.32,0,1.82,0.99,1.82,1.98c0,1.82,2.81,1.32,2.81,2.15
				C-364.24-507.27-385.72-488.59-388.54-488.59L-388.54-488.59z"/>
		</g>
		<g>
			<path d="M-335.47-481.32c-3.51,0-9.09-2.6-9.09-9.58c0-10.11,14.8-29.09,27.93-29.09c3.35,0,6.94,3.59,6.94,6.11
				c0,4.58-4.74,8.59-7.6,8.59c-0.96,0-1.81-0.18-1.81-2.31c0-0.88,0.76-1.43,1.64-2.06c1.01-0.73,2.16-1.55,2.16-3.07
				c0-0.88-0.67-1.82-2.15-1.82c-7.24,0-20.5,13.41-20.5,22.82c0,2.52,1.17,5.46,4.47,5.46c6.64,0,20.85-6.47,31.64-20.86
				c1.89-2.36,3.15-3.93,4.72-3.93c1.14,0,1.81,0.68,1.81,1.81c0,1.31-0.6,2.22-2.52,4.47
				C-305.03-496.06-321.04-481.32-335.47-481.32z"/>
			<path class="st2" d="M-316.63-519.49c3.05,0,6.44,3.34,6.44,5.61c0,4.17-4.43,8.09-7.1,8.09c-0.73,0-1.31,0-1.31-1.81
				c0-0.59,0.55-1.01,1.43-1.65c1.05-0.76,2.37-1.7,2.37-3.47c0-1.12-0.83-2.32-2.65-2.32c-7.6,0-21,13.48-21,23.32
				c0,2.97,1.54,5.96,4.97,5.96c11.2,0,25.48-12.32,32.02-21.04c1.81-2.26,3-3.76,4.34-3.76c1.09,0,1.31,0.71,1.31,1.31
				c0,1.1-0.43,1.84-2.42,4.16c-2.16,2.62-8.09,9.36-16.39,15.17c-7.57,5.3-14.78,8.1-20.85,8.1c-2.23,0-8.59-1.67-8.59-9.08
				c0-4.94,3.56-12.07,9.06-18.15C-329.09-515.59-322.22-519.49-316.63-519.49 M-316.63-520.49c-13.06,0-28.43,18.84-28.43,29.59
				c0,7.44,6.12,10.08,9.59,10.08c14.22,0,30.25-14.22,38.02-23.64c1.98-2.31,2.64-3.31,2.64-4.79c0-1.32-0.83-2.31-2.31-2.31
				c-1.82,0-3.14,1.65-5.12,4.13c-5.95,7.93-20.17,20.66-31.24,20.66c-2.81,0-3.97-2.48-3.97-4.96c0-9.42,13.22-22.32,20-22.32
				c1.16,0,1.65,0.66,1.65,1.32c0,2.48-3.8,2.81-3.8,5.12c0,2.48,1.16,2.81,2.31,2.81c3.14,0,8.1-4.3,8.1-9.09
				C-309.19-516.69-312.99-520.49-316.63-520.49L-316.63-520.49z"/>
		</g>
		<g>
			<path d="M-298.61-480.99c-5.06,0-10.41-5.1-10.41-9.91c0-0.88-0.13-1.46-0.26-2.01c-0.12-0.52-0.24-1.02-0.24-1.79
				c0-1.28,1.17-2.92,2.51-3.51l0.18-0.08l0.08-0.18c6.9-15.99,17.86-21.68,25.82-21.68c2.83,0,6.28,2.44,6.28,5.29
				c0,3.69-2.94,7.97-8.28,12.06c-4.76,3.65-10.88,6.63-15.96,7.78c-3.28,0.73-3.53,1.98-3.53,3.79c0,1.89,1.14,5.46,5.46,5.46
				c4.85,0,9.28-3.45,12.21-5.73c0.79-0.6,1.46-1.16,2.04-1.67c1.31-1.12,2.18-1.87,3.27-1.87c1.14,0,1.81,0.68,1.81,1.81
				c0,1.21-0.79,2.24-3.11,4.07l-0.37,0.29C-285.92-485.17-291.37-480.99-298.61-480.99z M-282.91-514.71
				c-5.63,0-15.06,11.22-17.29,14.78l-0.5,0.79l0.93-0.03c5.78-0.17,19.33-9.55,19.33-13.39
				C-280.43-514.45-281.68-514.71-282.91-514.71z"/>
			<path class="st2" d="M-280.93-519.66c2.6,0,5.78,2.21,5.78,4.79c0,7.39-13.34,16.98-23.85,19.36c-3.32,0.74-3.92,2.02-3.92,4.28
				c0,2.4,1.59,5.96,5.96,5.96c5.02,0,9.53-3.51,12.5-5.82c0.81-0.61,1.48-1.19,2.08-1.69c1.38-1.18,2.08-1.74,2.94-1.74
				c1.09,0,1.31,0.71,1.31,1.31c0,1.03-0.74,1.96-2.91,3.67l-0.38,0.29c-4.75,3.64-10.12,7.77-17.2,7.77
				c-4.82,0-9.91-4.84-9.91-9.41c0-0.94-0.15-1.57-0.27-2.13c-0.12-0.52-0.22-0.96-0.22-1.68c0-1.06,1.08-2.55,2.22-3.05l0.36-0.16
				l0.15-0.36c3.04-7.04,7.26-12.74,12.21-16.48C-289.91-517.92-285.23-519.66-280.93-519.66 M-301.61-498.61l1.87-0.05
				c3.37-0.1,8.48-2.85,12.13-5.39c1.8-1.25,7.68-5.56,7.68-8.51c0-2.65-2.25-2.65-2.98-2.65c-5.82,0-15.45,11.4-17.71,15.02
				L-301.61-498.61 M-280.93-520.66c-8.43,0-19.51,6.28-26.28,21.98c-1.49,0.66-2.81,2.48-2.81,3.97c0,1.65,0.5,2.15,0.5,3.8
				c0,5.29,5.79,10.41,10.91,10.41c7.6,0,13.22-4.46,18.18-8.27c2.31-1.82,3.31-2.98,3.31-4.46c0-1.32-0.83-2.31-2.31-2.31
				c-1.82,0-2.98,1.65-5.62,3.64c-2.98,2.31-7.27,5.62-11.9,5.62c-3.97,0-4.96-3.31-4.96-4.96c0-1.65,0.17-2.65,3.14-3.31
				c10.25-2.31,24.63-11.9,24.63-20.33C-274.15-518.01-277.79-520.66-280.93-520.66L-280.93-520.66z M-299.77-499.66
				c2.48-3.97,11.74-14.55,16.86-14.55c1.32,0,1.98,0.33,1.98,1.65C-280.93-509.09-293.99-499.83-299.77-499.66L-299.77-499.66z"/>
		</g>
	</g>
</g>
<g id="Layer_2">
	<g class="st0">
		<path class="st3" d="M-649.63-561.06c0.83,136.64,3.12,273.27,4.59,409.91c-1.22-113.5,1.66-229.32,3.23-343.52
			c0.21-15.35-2.07-35.61,8.94-48.09c10.35-11.73,27.5-8.65,41.39-8.65c28.95,0,48.66,0,77.61,0"/>
		<path class="st3" d="M-644.01-691.23c0.32-12.96,1.56-44.07-1.22-87.94c-0.04-0.56-0.85-0.54-0.86,0.02
			c-0.71,42.46-2.17,66.8-2.17,87.93"/>
		<path class="st3" d="M-782.77-550.98c61.07-0.03,28.29-0.16,89.36,0.08c14.58,0.06,33.79,3.21,43.79-10.17"/>
	</g>
	<g>
		<path class="st2" d="M-1059.46-1184.89h5.31v-1.46c0-2.84,0.85-5.02,2.54-6.54c1.69-1.53,4.13-2.29,7.3-2.29
			c0.64,0,1.33,0.05,2.08,0.14c0.75,0.09,1.36,0.2,1.85,0.32v6.13c-0.58-0.12-1.09-0.21-1.53-0.25c-0.44-0.05-0.91-0.07-1.4-0.07
			c-1.13,0-1.98,0.22-2.56,0.66c-0.58,0.44-0.87,1.12-0.87,2.04v1.33h6.36v6.18h-6.36v18.03h-7.41v-18.03h-5.31V-1184.89z"/>
		<path class="st2" d="M-1015.57-1163.89c-1.53,1.28-3.09,2.21-4.69,2.79c-1.6,0.58-3.41,0.87-5.42,0.87
			c-1.83,0-3.55-0.32-5.17-0.96c-1.62-0.64-3.01-1.52-4.19-2.65c-1.17-1.13-2.1-2.46-2.79-4c-0.69-1.54-1.03-3.18-1.03-4.92
			c0-1.74,0.33-3.38,0.98-4.92c0.66-1.54,1.55-2.88,2.68-4c1.13-1.13,2.46-2.01,4-2.65c1.54-0.64,3.2-0.96,4.96-0.96
			c1.77,0,3.4,0.34,4.9,1.01c1.49,0.67,2.78,1.59,3.87,2.75c1.08,1.16,1.93,2.56,2.54,4.19c0.61,1.63,0.92,3.39,0.92,5.29v1.83
			h-17.25c0.49,1.13,1.25,2.05,2.29,2.77c1.04,0.72,2.26,1.08,3.66,1.08c1.01,0,1.92-0.16,2.75-0.48c0.82-0.32,1.53-0.77,2.1-1.35
			L-1015.57-1163.89z M-1026.37-1179.26c-1.22,0-2.27,0.34-3.16,1.01c-0.89,0.67-1.51,1.62-1.88,2.84h10.11
			c-0.4-1.16-1.05-2.09-1.94-2.79C-1024.14-1178.91-1025.18-1179.26-1026.37-1179.26z"/>
		<path class="st2" d="M-1003.17-1194.32v33.63h-7.41v-32.03L-1003.17-1194.32z"/>
		<path class="st2" d="M-994.93-1187.13c-1.13,0-2.09-0.4-2.88-1.19c-0.79-0.79-1.19-1.75-1.19-2.88c0-1.13,0.4-2.09,1.19-2.88
			c0.79-0.79,1.75-1.19,2.88-1.19c1.13,0,2.09,0.4,2.88,1.19c0.79,0.79,1.19,1.75,1.19,2.88c0,1.13-0.4,2.09-1.19,2.88
			C-992.84-1187.53-993.81-1187.13-994.93-1187.13z M-991.23-1184.89v24.21h-7.41v-24.21H-991.23z"/>
		<path class="st2" d="M-986.7-1151.03v-33.86h7.32v1.78c0.95-0.67,1.97-1.19,3.07-1.56c1.1-0.37,2.24-0.55,3.43-0.55
			c1.71,0,3.32,0.32,4.83,0.96c1.51,0.64,2.82,1.53,3.94,2.65c1.11,1.13,1.99,2.45,2.63,3.96c0.64,1.51,0.96,3.13,0.96,4.87
			c0,1.74-0.33,3.36-0.98,4.87c-0.66,1.51-1.55,2.82-2.68,3.94c-1.13,1.11-2.46,1.99-4,2.63c-1.54,0.64-3.18,0.96-4.92,0.96
			c-1.13,0-2.21-0.14-3.25-0.41c-1.04-0.27-2.01-0.67-2.93-1.19v10.94H-986.7z M-974.16-1178.9c-1.04,0-1.98,0.16-2.84,0.48
			c-0.85,0.32-1.62,0.8-2.29,1.44v8.47c0.64,0.58,1.4,1.04,2.29,1.37c0.88,0.34,1.83,0.5,2.84,0.5c1.8,0,3.31-0.59,4.53-1.76
			c1.22-1.17,1.83-2.63,1.83-4.37c0-1.74-0.62-3.2-1.85-4.37C-970.89-1178.31-972.39-1178.9-974.16-1178.9z"/>
		<path class="st2" d="M-934.67-1163.89c-1.53,1.28-3.09,2.21-4.69,2.79c-1.6,0.58-3.41,0.87-5.42,0.87c-1.83,0-3.55-0.32-5.17-0.96
			c-1.62-0.64-3.01-1.52-4.19-2.65c-1.17-1.13-2.1-2.46-2.79-4c-0.69-1.54-1.03-3.18-1.03-4.92c0-1.74,0.33-3.38,0.98-4.92
			c0.66-1.54,1.55-2.88,2.68-4c1.13-1.13,2.46-2.01,4-2.65c1.54-0.64,3.2-0.96,4.96-0.96c1.77,0,3.4,0.34,4.9,1.01
			c1.49,0.67,2.78,1.59,3.87,2.75c1.08,1.16,1.93,2.56,2.54,4.19c0.61,1.63,0.92,3.39,0.92,5.29v1.83h-17.25
			c0.49,1.13,1.25,2.05,2.29,2.77c1.04,0.72,2.26,1.08,3.66,1.08c1.01,0,1.92-0.16,2.75-0.48c0.82-0.32,1.53-0.77,2.1-1.35
			L-934.67-1163.89z M-945.47-1179.26c-1.22,0-2.27,0.34-3.16,1.01c-0.89,0.67-1.51,1.62-1.88,2.84h10.11
			c-0.4-1.16-1.05-2.09-1.94-2.79C-943.23-1178.91-944.28-1179.26-945.47-1179.26z"/>
		<path class="st2" d="M-1050.03-1114.92l-10.34-24.21h8.05l5.99,14.83l5.99-14.83h7.87l-10.34,24.21H-1050.03z"/>
		<path class="st2" d="M-1009.03-1118.13c-1.53,1.28-3.09,2.21-4.69,2.79c-1.6,0.58-3.41,0.87-5.42,0.87
			c-1.83,0-3.55-0.32-5.17-0.96c-1.62-0.64-3.01-1.52-4.19-2.65c-1.17-1.13-2.1-2.46-2.79-4c-0.69-1.54-1.03-3.18-1.03-4.92
			c0-1.74,0.33-3.38,0.98-4.92c0.66-1.54,1.55-2.87,2.68-4c1.13-1.13,2.46-2.01,4-2.65c1.54-0.64,3.2-0.96,4.97-0.96
			c1.77,0,3.4,0.34,4.9,1.01c1.49,0.67,2.78,1.59,3.87,2.75c1.08,1.16,1.93,2.56,2.54,4.19c0.61,1.63,0.92,3.39,0.92,5.29v1.83
			h-17.25c0.49,1.13,1.25,2.05,2.29,2.77c1.04,0.72,2.26,1.08,3.66,1.08c1.01,0,1.92-0.16,2.75-0.48s1.53-0.77,2.1-1.35
			L-1009.03-1118.13z M-1019.83-1133.5c-1.22,0-2.27,0.34-3.16,1.01c-0.89,0.67-1.51,1.62-1.88,2.84h10.11
			c-0.4-1.16-1.05-2.09-1.94-2.79C-1017.59-1133.15-1018.64-1133.5-1019.83-1133.5z"/>
		<path class="st2" d="M-1000.33-1141.37c-1.13,0-2.09-0.4-2.88-1.19c-0.79-0.79-1.19-1.75-1.19-2.88c0-1.13,0.4-2.09,1.19-2.88
			c0.79-0.79,1.75-1.19,2.88-1.19c1.13,0,2.09,0.4,2.88,1.19c0.79,0.79,1.19,1.75,1.19,2.88c0,1.13-0.4,2.09-1.19,2.88
			C-998.24-1141.77-999.2-1141.37-1000.33-1141.37z M-996.63-1139.13v24.21h-7.41v-24.21H-996.63z"/>
		<path class="st2" d="M-980.88-1114.83c-1.71,0-3.32-0.32-4.83-0.96c-1.51-0.64-2.81-1.52-3.91-2.63c-1.1-1.11-1.97-2.43-2.61-3.94
			c-0.64-1.51-0.96-3.12-0.96-4.83c0-1.71,0.33-3.31,0.98-4.8c0.66-1.49,1.55-2.79,2.68-3.89c1.13-1.1,2.46-1.97,4-2.61
			c1.54-0.64,3.18-0.96,4.92-0.96c1.1,0,2.17,0.14,3.2,0.41c1.04,0.27,2,0.67,2.88,1.19v-1.28h7.32v23.98
			c0,3.26-1.08,5.77-3.25,7.53c-2.17,1.75-5.26,2.63-9.29,2.63c-1.92,0-3.77-0.18-5.54-0.55c-1.77-0.37-3.37-0.89-4.8-1.56
			l2.47-5.77c1.31,0.61,2.61,1.07,3.89,1.37c1.28,0.31,2.56,0.46,3.84,0.46c1.74,0,3.05-0.35,3.94-1.05
			c0.88-0.7,1.33-1.75,1.33-3.16v-1.51c-0.92,0.61-1.91,1.08-2.97,1.42C-978.66-1115-979.76-1114.83-980.88-1114.83z
			 M-985.92-1127.19c0,1.74,0.61,3.2,1.83,4.37c1.22,1.17,2.71,1.76,4.48,1.76c1.01,0,1.93-0.15,2.77-0.46
			c0.84-0.3,1.58-0.75,2.22-1.33v-8.56c-0.64-0.55-1.39-0.98-2.24-1.3c-0.85-0.32-1.75-0.48-2.7-0.48c-1.77,0-3.27,0.58-4.51,1.74
			C-985.3-1130.28-985.92-1128.86-985.92-1127.19z"/>
		<path class="st2" d="M-954.94-1114.51c-2.56,0-4.67-0.7-6.32-2.1c-1.65-1.4-2.47-3.2-2.47-5.4c0-2.29,0.88-4.07,2.63-5.35
			c1.75-1.28,4.2-1.92,7.34-1.92c0.95,0,1.88,0.06,2.79,0.18c0.92,0.12,1.81,0.29,2.7,0.5v-1.19c0-1.22-0.39-2.13-1.17-2.72
			c-0.78-0.59-1.93-0.89-3.46-0.89c-0.95,0-2.01,0.15-3.2,0.46c-1.19,0.31-2.56,0.79-4.12,1.46l-2.65-5.45
			c1.95-0.88,3.87-1.55,5.74-1.99c1.88-0.44,3.73-0.66,5.56-0.66c3.36,0,5.96,0.8,7.83,2.4c1.86,1.6,2.79,3.85,2.79,6.75v15.51
			h-7.32v-1.46c-0.98,0.67-2.01,1.15-3.09,1.44C-952.43-1114.66-953.63-1114.51-954.94-1114.51z M-956.68-1122.15
			c0,0.76,0.34,1.36,1.01,1.79c0.67,0.43,1.6,0.64,2.79,0.64c0.88,0,1.72-0.09,2.49-0.27c0.78-0.18,1.49-0.47,2.13-0.87v-3.11
			c-0.7-0.18-1.42-0.32-2.15-0.41c-0.73-0.09-1.48-0.14-2.24-0.14c-1.28,0-2.27,0.21-2.97,0.62
			C-956.33-1123.5-956.68-1122.92-956.68-1122.15z"/>
		<path class="st4" d="M-932.97-1122.93c1.16,0,2.16,0.42,3,1.26c0.84,0.84,1.26,1.84,1.26,3c0,1.16-0.42,2.16-1.26,3
			c-0.84,0.84-1.84,1.26-3,1.26c-1.16,0-2.16-0.42-3-1.26c-0.84-0.84-1.26-1.84-1.26-3c0-1.16,0.42-2.16,1.26-3
			C-935.13-1122.51-934.13-1122.93-932.97-1122.93z"/>
	</g>
	<g>
		<path class="st2" d="M-1132.9-1082.73h5.29v-1.46c0-2.83,0.84-5,2.53-6.52c1.69-1.52,4.11-2.28,7.27-2.28
			c0.64,0,1.33,0.05,2.07,0.14c0.74,0.09,1.36,0.2,1.85,0.32v6.11c-0.58-0.12-1.09-0.21-1.53-0.25c-0.44-0.05-0.91-0.07-1.39-0.07
			c-1.13,0-1.98,0.22-2.55,0.66c-0.58,0.44-0.87,1.12-0.87,2.03v1.32h6.34v6.16h-6.34v17.97h-7.39v-17.97h-5.29V-1082.73z"/>
		<path class="st2" d="M-1089.17-1061.8c-1.52,1.28-3.08,2.2-4.67,2.78c-1.6,0.58-3.4,0.87-5.4,0.87c-1.82,0-3.54-0.32-5.15-0.96
			c-1.61-0.64-3-1.52-4.17-2.64c-1.17-1.12-2.1-2.45-2.78-3.99c-0.68-1.53-1.03-3.17-1.03-4.9c0-1.73,0.33-3.37,0.98-4.9
			c0.65-1.53,1.54-2.87,2.67-3.99c1.12-1.12,2.45-2.01,3.99-2.64c1.53-0.64,3.18-0.96,4.95-0.96c1.76,0,3.39,0.33,4.88,1
			c1.49,0.67,2.77,1.58,3.85,2.74c1.08,1.16,1.92,2.55,2.53,4.17c0.61,1.63,0.91,3.38,0.91,5.27v1.82h-17.19
			c0.49,1.13,1.25,2.05,2.28,2.76c1.03,0.71,2.25,1.07,3.65,1.07c1,0,1.92-0.16,2.74-0.48c0.82-0.32,1.52-0.77,2.1-1.35
			L-1089.17-1061.8z M-1099.93-1077.13c-1.22,0-2.27,0.33-3.15,1c-0.88,0.67-1.5,1.61-1.87,2.83h10.08
			c-0.4-1.16-1.04-2.08-1.94-2.78C-1097.7-1076.78-1098.74-1077.13-1099.93-1077.13z"/>
		<path class="st2" d="M-1076.81-1092.13v33.52h-7.39v-31.92L-1076.81-1092.13z"/>
		<path class="st2" d="M-1068.6-1084.97c-1.13,0-2.08-0.39-2.87-1.19c-0.79-0.79-1.19-1.75-1.19-2.87c0-1.12,0.39-2.08,1.19-2.87
			c0.79-0.79,1.75-1.19,2.87-1.19c1.12,0,2.08,0.4,2.87,1.19c0.79,0.79,1.19,1.75,1.19,2.87c0,1.13-0.4,2.08-1.19,2.87
			C-1066.52-1085.36-1067.48-1084.97-1068.6-1084.97z M-1064.91-1082.73v24.12h-7.39v-24.12H-1064.91z"/>
		<path class="st2" d="M-1060.39-1048.99v-33.75h7.3v1.78c0.94-0.67,1.96-1.19,3.06-1.55c1.09-0.36,2.23-0.55,3.42-0.55
			c1.7,0,3.31,0.32,4.81,0.96c1.5,0.64,2.81,1.52,3.92,2.64c1.11,1.13,1.98,2.44,2.62,3.95c0.64,1.5,0.96,3.12,0.96,4.86
			c0,1.73-0.33,3.35-0.98,4.86c-0.65,1.5-1.54,2.81-2.67,3.92c-1.13,1.11-2.46,1.98-3.99,2.62c-1.54,0.64-3.17,0.96-4.9,0.96
			c-1.12,0-2.2-0.14-3.24-0.41c-1.03-0.27-2.01-0.67-2.92-1.19v10.9H-1060.39z M-1047.9-1076.76c-1.03,0-1.98,0.16-2.83,0.48
			c-0.85,0.32-1.61,0.8-2.28,1.44v8.44c0.64,0.58,1.4,1.03,2.28,1.37c0.88,0.33,1.82,0.5,2.83,0.5c1.79,0,3.3-0.59,4.51-1.76
			c1.22-1.17,1.82-2.62,1.82-4.35c0-1.73-0.62-3.18-1.85-4.36C-1044.64-1076.17-1046.13-1076.76-1047.9-1076.76z"/>
		<path class="st2" d="M-1008.54-1061.8c-1.52,1.28-3.08,2.2-4.67,2.78c-1.6,0.58-3.4,0.87-5.4,0.87c-1.82,0-3.54-0.32-5.15-0.96
			c-1.61-0.64-3-1.52-4.17-2.64c-1.17-1.12-2.1-2.45-2.78-3.99c-0.68-1.53-1.03-3.17-1.03-4.9c0-1.73,0.33-3.37,0.98-4.9
			c0.65-1.53,1.54-2.87,2.67-3.99c1.12-1.12,2.45-2.01,3.99-2.64c1.53-0.64,3.18-0.96,4.95-0.96c1.76,0,3.39,0.33,4.88,1
			c1.49,0.67,2.77,1.58,3.85,2.74c1.08,1.16,1.92,2.55,2.53,4.17c0.61,1.63,0.91,3.38,0.91,5.27v1.82h-17.19
			c0.49,1.13,1.25,2.05,2.28,2.76c1.03,0.71,2.25,1.07,3.65,1.07c1,0,1.92-0.16,2.74-0.48c0.82-0.32,1.52-0.77,2.1-1.35
			L-1008.54-1061.8z M-1019.3-1077.13c-1.22,0-2.27,0.33-3.15,1c-0.88,0.67-1.5,1.61-1.87,2.83h10.08c-0.4-1.16-1.04-2.08-1.94-2.78
			C-1017.08-1076.78-1018.12-1077.13-1019.3-1077.13z"/>
		<path class="st2" d="M-986.79-1058.61l-10.31-24.12h8.03l5.97,14.78l5.97-14.78h7.84l-10.31,24.12H-986.79z"/>
		<path class="st2" d="M-945.93-1061.8c-1.52,1.28-3.08,2.2-4.67,2.78c-1.6,0.58-3.4,0.87-5.4,0.87c-1.82,0-3.54-0.32-5.15-0.96
			c-1.61-0.64-3-1.52-4.17-2.64c-1.17-1.12-2.1-2.45-2.78-3.99c-0.68-1.53-1.03-3.17-1.03-4.9c0-1.73,0.33-3.37,0.98-4.9
			c0.65-1.53,1.54-2.87,2.67-3.99c1.12-1.12,2.46-2.01,3.99-2.64c1.53-0.64,3.18-0.96,4.95-0.96c1.76,0,3.39,0.33,4.88,1
			c1.49,0.67,2.77,1.58,3.85,2.74c1.08,1.16,1.92,2.55,2.53,4.17c0.61,1.63,0.91,3.38,0.91,5.27v1.82h-17.19
			c0.49,1.13,1.25,2.05,2.28,2.76c1.03,0.71,2.25,1.07,3.65,1.07c1,0,1.92-0.16,2.74-0.48c0.82-0.32,1.52-0.77,2.1-1.35
			L-945.93-1061.8z M-956.69-1077.13c-1.22,0-2.27,0.33-3.15,1c-0.88,0.67-1.51,1.61-1.87,2.83h10.08c-0.4-1.16-1.04-2.08-1.94-2.78
			C-954.46-1076.78-955.5-1077.13-956.69-1077.13z"/>
		<path class="st2" d="M-937.26-1084.97c-1.12,0-2.08-0.39-2.87-1.19c-0.79-0.79-1.19-1.75-1.19-2.87c0-1.12,0.4-2.08,1.19-2.87
			c0.79-0.79,1.75-1.19,2.87-1.19c1.12,0,2.08,0.4,2.87,1.19c0.79,0.79,1.19,1.75,1.19,2.87c0,1.13-0.4,2.08-1.19,2.87
			C-935.18-1085.36-936.14-1084.97-937.26-1084.97z M-933.57-1082.73v24.12h-7.39v-24.12H-933.57z"/>
		<path class="st2" d="M-917.88-1058.52c-1.7,0-3.31-0.32-4.81-0.96c-1.51-0.64-2.8-1.51-3.9-2.62c-1.09-1.11-1.96-2.42-2.6-3.92
			c-0.64-1.51-0.96-3.11-0.96-4.81c0-1.7,0.33-3.3,0.98-4.79c0.65-1.49,1.54-2.78,2.67-3.88c1.12-1.09,2.46-1.96,3.99-2.6
			c1.53-0.64,3.17-0.96,4.9-0.96c1.09,0,2.16,0.14,3.19,0.41c1.03,0.27,1.99,0.67,2.87,1.19v-1.28h7.3v23.9
			c0,3.25-1.08,5.75-3.24,7.5c-2.16,1.75-5.24,2.62-9.26,2.62c-1.92,0-3.76-0.18-5.52-0.55c-1.76-0.36-3.36-0.88-4.79-1.55
			l2.46-5.75c1.31,0.61,2.6,1.06,3.88,1.37c1.28,0.3,2.55,0.46,3.83,0.46c1.73,0,3.04-0.35,3.92-1.05c0.88-0.7,1.32-1.75,1.32-3.15
			v-1.51c-0.91,0.61-1.9,1.08-2.96,1.41C-915.66-1058.69-916.76-1058.52-917.88-1058.52z M-922.9-1070.83
			c0,1.73,0.61,3.19,1.82,4.36c1.22,1.17,2.71,1.76,4.47,1.76c1,0,1.92-0.15,2.76-0.46c0.84-0.3,1.57-0.74,2.21-1.32v-8.53
			c-0.64-0.55-1.38-0.98-2.24-1.3c-0.85-0.32-1.75-0.48-2.69-0.48c-1.76,0-3.26,0.58-4.49,1.73
			C-922.28-1073.92-922.9-1072.5-922.9-1070.83z"/>
		<path class="st2" d="M-892.02-1058.2c-2.55,0-4.65-0.7-6.29-2.1c-1.64-1.4-2.46-3.19-2.46-5.38c0-2.28,0.87-4.06,2.62-5.34
			c1.75-1.28,4.19-1.92,7.32-1.92c0.94,0,1.87,0.06,2.78,0.18c0.91,0.12,1.81,0.29,2.69,0.5v-1.19c0-1.22-0.39-2.12-1.16-2.71
			c-0.78-0.59-1.92-0.89-3.44-0.89c-0.94,0-2.01,0.15-3.19,0.46c-1.19,0.3-2.55,0.79-4.1,1.46l-2.64-5.43
			c1.94-0.88,3.85-1.54,5.72-1.98c1.87-0.44,3.72-0.66,5.54-0.66c3.34,0,5.94,0.8,7.8,2.39c1.85,1.6,2.78,3.84,2.78,6.73v15.46h-7.3
			v-1.46c-0.97,0.67-2,1.15-3.08,1.44C-889.52-1058.34-890.72-1058.2-892.02-1058.2z M-893.76-1065.82c0,0.76,0.33,1.35,1,1.78
			c0.67,0.43,1.6,0.64,2.78,0.64c0.88,0,1.71-0.09,2.49-0.27c0.78-0.18,1.48-0.47,2.12-0.87v-3.1c-0.7-0.18-1.41-0.32-2.14-0.41
			c-0.73-0.09-1.47-0.14-2.23-0.14c-1.28,0-2.27,0.2-2.96,0.62C-893.41-1067.16-893.76-1066.58-893.76-1065.82z"/>
		<path class="st4" d="M-870.13-1066.59c1.16,0,2.15,0.42,2.99,1.25c0.84,0.84,1.25,1.83,1.25,2.99c0,1.16-0.42,2.15-1.25,2.99
			c-0.84,0.84-1.83,1.25-2.99,1.25s-2.15-0.42-2.99-1.25c-0.84-0.84-1.25-1.83-1.25-2.99c0-1.16,0.42-2.15,1.25-2.99
			C-872.28-1066.17-871.29-1066.59-870.13-1066.59z"/>
	</g>
	<g>
		<path class="st5" d="M-1049.14-937.24h5.32v-1.47c0-2.84,0.85-5.03,2.55-6.56c1.7-1.53,4.14-2.29,7.32-2.29
			c0.64,0,1.34,0.05,2.09,0.14c0.75,0.09,1.37,0.2,1.86,0.32v6.15c-0.58-0.12-1.09-0.21-1.54-0.25c-0.44-0.05-0.91-0.07-1.4-0.07
			c-1.13,0-1.99,0.22-2.57,0.67c-0.58,0.44-0.87,1.12-0.87,2.04v1.33h6.38v6.19h-6.38v18.08h-7.43v-18.08h-5.32V-937.24z"/>
		<path class="st5" d="M-1018.58-912.97l-10.37-24.27h8.08l6.01,14.87l6.01-14.87h7.89l-10.37,24.27H-1018.58z"/>
		<path class="st6" d="M-999.4-921c1.16,0,2.16,0.42,3.01,1.26c0.84,0.84,1.26,1.84,1.26,3.01c0,1.16-0.42,2.16-1.26,3.01
			c-0.84,0.84-1.84,1.26-3.01,1.26c-1.16,0-2.16-0.42-3.01-1.26c-0.84-0.84-1.26-1.84-1.26-3.01c0-1.16,0.42-2.16,1.26-3.01
			C-1001.57-920.58-1000.57-921-999.4-921z"/>
	</g>
	<g>
		<path class="st5" d="M-1132.29-1184.96h5.32v-1.47c0-2.84,0.85-5.03,2.55-6.56c1.7-1.53,4.14-2.29,7.32-2.29
			c0.64,0,1.34,0.05,2.09,0.14c0.75,0.09,1.37,0.2,1.86,0.32v6.15c-0.58-0.12-1.09-0.21-1.54-0.25c-0.44-0.05-0.91-0.07-1.4-0.07
			c-1.13,0-1.99,0.22-2.57,0.67c-0.58,0.44-0.87,1.12-0.87,2.04v1.33h6.38v6.19h-6.38v18.08h-7.43v-18.08h-5.32V-1184.96z"/>
		<path class="st5" d="M-1101.74-1160.68l-10.37-24.27h8.08l6.01,14.87l6.01-14.87h7.89l-10.37,24.27H-1101.74z"/>
		<path class="st6" d="M-1082.56-1168.71c1.16,0,2.16,0.42,3.01,1.26c0.84,0.84,1.26,1.84,1.26,3.01c0,1.16-0.42,2.16-1.26,3.01
			c-0.84,0.84-1.84,1.26-3.01,1.26c-1.16,0-2.16-0.42-3.01-1.26c-0.84-0.84-1.26-1.84-1.26-3.01c0-1.16,0.42-2.16,1.26-3.01
			C-1084.72-1168.29-1083.72-1168.71-1082.56-1168.71z"/>
	</g>
	<polygon style="fill:none;" points="-308.64,-194.43 -310.89,-194.43 -310.89,-194.43 -308.64,-194.43 	"/>
	<g>
		<path class="st2" d="M160.44,11.15v-0.04c-0.01,0.01-0.01,0.02-0.02,0.04L160.44,11.15L160.44,11.15z"/>
		<path class="st2" d="M169.7-0.01h-20.69c-0.92,0-1.66,0.74-1.66,1.66v20.7c0,0.92,0.74,1.66,1.66,1.66h20.69
			c0.92,0,1.66-0.74,1.66-1.66V1.65C171.36,0.73,170.62-0.01,169.7-0.01z M154.71,20.62h-3.68V9.54h3.68V20.62z M152.87,8.03h-0.02
			c-1.24,0-2.04-0.85-2.04-1.91c0-1.09,0.83-1.91,2.09-1.91s2.03,0.83,2.06,1.91C154.96,7.18,154.15,8.03,152.87,8.03z M168,20.62
			h-3.68v-5.93c0-1.49-0.54-2.51-1.86-2.51c-1.02,0-1.62,0.68-1.89,1.35c-0.1,0.24-0.12,0.56-0.12,0.9v6.19h-3.68
			c0,0,0.05-10.04,0-11.08h3.68v1.57c0.49-0.76,1.36-1.83,3.32-1.83c2.43,0,4.24,1.58,4.24,4.99L168,20.62L168,20.62z"/>
	</g>
	<g>
		<path class="st2" d="M12,2.15c3.2,0,3.58,0.01,4.85,0.07c1.17,0.05,1.81,0.25,2.23,0.41c0.56,0.22,0.96,0.48,1.38,0.9
			c0.42,0.42,0.68,0.82,0.9,1.38c0.16,0.42,0.36,1.06,0.41,2.23c0.06,1.27,0.07,1.64,0.07,4.85s-0.01,3.58-0.07,4.85
			c-0.05,1.17-0.25,1.81-0.41,2.23c-0.22,0.56-0.48,0.96-0.9,1.38c-0.42,0.42-0.82,0.68-1.38,0.9c-0.42,0.16-1.06,0.36-2.23,0.41
			c-1.27,0.06-1.64,0.07-4.85,0.07s-3.58-0.01-4.85-0.07c-1.17-0.05-1.81-0.25-2.23-0.41c-0.56-0.22-0.96-0.48-1.38-0.9
			s-0.68-0.82-0.9-1.38c-0.16-0.42-0.36-1.06-0.41-2.23c-0.06-1.27-0.07-1.64-0.07-4.85s0.01-3.58,0.07-4.85
			c0.05-1.17,0.25-1.81,0.41-2.23c0.22-0.56,0.48-0.96,0.9-1.38s0.82-0.68,1.38-0.9c0.42-0.16,1.06-0.36,2.23-0.41
			C8.42,2.16,8.8,2.15,12,2.15 M12-0.01C8.74-0.01,8.33,0,7.05,0.06C5.78,0.12,4.9,0.32,4.14,0.62C3.35,0.93,2.68,1.34,2.01,2
			S0.94,3.34,0.63,4.13c-0.3,0.76-0.5,1.64-0.56,2.91C0.01,8.32,0,8.73,0,11.99s0.01,3.67,0.07,4.95c0.06,1.28,0.26,2.15,0.56,2.91
			c0.31,0.79,0.72,1.46,1.38,2.13c0.67,0.67,1.34,1.08,2.13,1.38c0.76,0.3,1.64,0.5,2.91,0.56c1.28,0.06,1.69,0.07,4.95,0.07
			s3.67-0.01,4.95-0.07c1.28-0.06,2.15-0.26,2.91-0.56c0.79-0.31,1.46-0.72,2.13-1.38c0.67-0.67,1.08-1.34,1.38-2.13
			c0.3-0.76,0.5-1.64,0.56-2.91c0.06-1.28,0.07-1.69,0.07-4.95s-0.01-3.67-0.07-4.95c-0.06-1.28-0.26-2.15-0.56-2.91
			C23.06,3.34,22.65,2.67,21.99,2c-0.67-0.67-1.34-1.08-2.13-1.38c-0.76-0.3-1.64-0.5-2.91-0.56C15.67,0,15.26-0.01,12-0.01z
			 M12,5.83c-3.4,0-6.16,2.76-6.16,6.16S8.6,18.15,12,18.15s6.16-2.76,6.16-6.16S15.4,5.83,12,5.83z M12,15.99c-2.21,0-4-1.79-4-4
			s1.79-4,4-4s4,1.79,4,4S14.21,15.99,12,15.99z M19.85,5.58c0,0.8-0.64,1.44-1.44,1.44s-1.44-0.64-1.44-1.44s0.64-1.44,1.44-1.44
			S19.85,4.79,19.85,5.58z"/>
	</g>
</g>
</svg>
