<?xml version="1.0" encoding="utf-8"?>
<!-- Generator: Adobe Illustrator 24.0.3, SVG Export Plug-In . SVG Version: 6.00 Build 0)  -->
<svg version="1.1" xmlns="http://www.w3.org/2000/svg" xmlns:xlink="http://www.w3.org/1999/xlink" x="0px" y="0px"
	 viewBox="0 0 268.4 44.6" style="enable-background:new 0 0 268.4 44.6;" xml:space="preserve">
<style type="text/css">
	.st0{display:none;}
	.st1{display:inline;}
	.st2{fill:#FFFFFF;}
	
		.st3{display:inline;fill:none;stroke:#000000;stroke-width:2.7121;stroke-linecap:round;stroke-linejoin:round;stroke-miterlimit:10;}
	.st4{fill:#18161D;}
	.st5{fill:#C750FF;}
	.st6{fill:#C365EF;}
</style>
<g id="Layer_1" class="st0">
	<g class="st1">
		<g>
			<path d="M31.51,764.75c-8.13,0-13.38-5.25-13.38-13.38c0-24.85,36.6-43.88,56.26-54.11l0.2-0.1l0.05-0.22
				c1.62-6.46,2.66-11.89,3.21-14.81c0.19-0.99,0.35-1.84,0.4-1.98l1.62-3.23l-2.45,2.7c-4.95,5.42-18.91,16.04-28.72,16.04
				c-8.38,0-13.38-5.37-13.38-14.38c0-4.51,0.71-9.01,2.12-13.4l0.21-0.65h-0.69c-7.33,0-8.43-2.59-8.43-4.13
				c0-0.62,0.24-2.64,3.3-2.64c1.2,0,2.43,0.19,3.72,0.39c1.16,0.18,2.36,0.36,3.69,0.44l0.35,0.02l0.14-0.33
				c3.35-7.94,7.72-15.18,12.98-21.53c12.33-14.87,33.35-27.42,45.9-27.42c7.1,0,10.41,3.26,10.41,10.24
				c0,9.92-15.4,26.19-29.17,34.11c-13.91,7.75-29.12,9.94-35.01,10.52l-0.33,0.03l-0.1,0.31c-1.53,4.76-2.34,9.38-2.34,13.38
				c0,5.66,1.49,9.43,8.76,9.43c10.15,0,29.56-19.03,31.51-22.4c2.09-3.06,3.13-3.55,5.35-3.55c1.07,0,1.98,0.98,1.98,2.15
				c0,1.2-0.69,2.67-1.65,4.71c-1.11,2.36-2.63,5.58-3.79,10.04l-0.51,2.28c-0.56,2.52-1.22,5.47-1.98,8.99l-0.24,1.12l0.98-0.58
				c7.04-4.17,14.84-9.25,19.32-15.34c1.89-2.36,3.14-3.93,4.72-3.93c1.14,0,1.81,0.68,1.81,1.81c0,1.31-0.6,2.22-2.52,4.47
				c-6.89,8.3-16.75,14.55-25.49,19.56l-0.19,0.11l-0.05,0.21C70.82,737.38,50.38,764.75,31.51,764.75z M71.97,703.97
				c-16.68,7.71-48.23,27.34-48.23,46.41c0,6.06,2.92,9.26,8.43,9.26c13.59,0,34.4-28.32,40.49-55.1l0.23-0.99L71.97,703.97z
				 M97.3,618.13c-10.64,0-29.74,13.52-39.07,25.15c-4.27,5.06-7.97,10.77-10.97,16.96l-0.39,0.8l0.89-0.09
				c10.47-1.05,19.82-3.85,27.8-8.33c16.81-9.54,27.53-24.32,27.53-28.87C103.09,620.39,100.76,618.13,97.3,618.13z"/>
			<path class="st2" d="M98.62,612.52c6.76,0,9.91,3.1,9.91,9.74c0,3.85-2.96,9.79-7.92,15.9c-5.59,6.89-13.05,13.2-20.99,17.77
				c-13.83,7.71-28.96,9.88-34.82,10.46l-0.65,0.06l-0.2,0.62c-1.55,4.81-2.36,9.49-2.36,13.53c0,7.05,2.68,9.93,9.26,9.93
				c10.28,0,29.84-19.11,31.92-22.61c1.99-2.9,2.89-3.34,4.94-3.34c0.8,0,1.48,0.75,1.48,1.65c0,1.09-0.67,2.52-1.61,4.5
				c-1.12,2.37-2.65,5.62-3.83,10.16l-0.5,2.26c-0.57,2.56-1.22,5.47-1.98,8.99l-0.48,2.23l1.97-1.16
				c7.08-4.19,14.94-9.31,19.45-15.44c1.81-2.26,3-3.76,4.34-3.76c1.09,0,1.31,0.71,1.31,1.31c0,1.1-0.43,1.84-2.42,4.15
				c-6.83,8.24-16.65,14.45-25.35,19.44l-0.37,0.21l-0.1,0.42c-9.25,37.49-29.48,64.7-48.12,64.7c-7.83,0-12.88-5.06-12.88-12.88
				c0-24.55,36.42-43.49,55.99-53.66l0.4-0.21l0.11-0.44c1.62-6.48,2.66-11.92,3.22-14.84c0.17-0.88,0.32-1.65,0.37-1.89l3.21-6.38
				l-4.87,5.33c-4.9,5.36-18.69,15.87-28.35,15.87c-8.19,0-12.88-5.06-12.88-13.88c0-4.45,0.71-8.91,2.1-13.25l0.42-1.31h-1.37
				c-5.04,0-7.93-1.32-7.93-3.63c0-0.64,0.27-2.14,2.8-2.14c1.17,0,2.37,0.18,3.65,0.38c1.17,0.18,2.38,0.36,3.73,0.44l0.71,0.04
				l0.27-0.65c3.33-7.89,7.68-15.1,12.91-21.4C66.63,623.47,87.56,612.52,98.62,612.52 M46.03,661.63l1.78-0.18
				c10.54-1.05,19.96-3.88,28-8.39c16.96-9.62,27.78-24.65,27.78-29.3c0-3.66-2.53-6.12-6.29-6.12c-9.03,0-27.83,10.83-39.44,25.32
				c-4.31,5.11-8.02,10.85-11.05,17.07L46.03,661.63 M32.17,760.14c15.01,0,35.42-31.03,40.98-55.49l0.45-1.98l-1.85,0.85
				c-3.9,1.8-17.58,8.46-29.94,18.52c-12.32,10.02-18.57,19.56-18.57,28.34C23.24,758.44,28.1,760.14,32.17,760.14 M98.62,611.52
				c-12.23,0-33.39,12.07-46.28,27.6c-5.62,6.78-9.92,14.22-13.06,21.65c-2.81-0.17-5.12-0.83-7.44-0.83c-2.81,0-3.8,1.65-3.8,3.14
				c0,1.82,1.32,4.63,8.93,4.63c-1.49,4.63-2.15,9.26-2.15,13.55c0,9.92,5.79,14.88,13.88,14.88c9.92,0,23.8-10.41,29.09-16.2
				c-0.17,0.33-1.32,7.6-3.64,16.86c-20.66,10.74-56.53,29.75-56.53,54.55c0,8.43,5.62,13.88,13.88,13.88
				c19.67,0,40-28.6,49.09-65.46c10.08-5.79,19.17-11.9,25.62-19.67c1.98-2.31,2.65-3.31,2.65-4.79c0-1.32-0.83-2.31-2.31-2.31
				c-1.82,0-3.14,1.65-5.12,4.13c-4.13,5.62-11.08,10.41-19.17,15.21c0.99-4.63,1.82-8.26,2.48-11.24
				c2.15-8.26,5.46-12.07,5.46-14.88c0-1.49-1.16-2.65-2.48-2.65c-2.48,0-3.64,0.66-5.79,3.8c-1.82,3.14-21.16,22.15-31.08,22.15
				c-6.45,0-8.26-2.98-8.26-8.93c0-3.97,0.83-8.6,2.31-13.22c10.08-0.99,23.64-4.13,35.21-10.58
				c17.52-10.08,29.42-26.45,29.42-34.55C109.53,614.83,105.73,611.52,98.62,611.52L98.62,611.52z M47.71,660.45
				c2.81-5.79,6.45-11.57,10.91-16.86c11.41-14.22,30.08-24.96,38.68-24.96c3.47,0,5.29,2.31,5.29,5.12
				c0,3.97-10.08,18.68-27.27,28.43C65.89,657.48,55.98,659.63,47.71,660.45L47.71,660.45z M72.18,704.42
				c-5.79,25.46-26.28,54.71-40,54.71c-5.45,0-7.93-3.14-7.93-8.76C24.24,731.04,56.8,711.53,72.18,704.42L72.18,704.42z"/>
		</g>
		<g>
			<path d="M98.6,703.43c-1.39-0.02-3.28-1.92-3.28-3.3c0-1.42,1.95-7.11,5.09-14.85c3.25-7.71,5.26-13.07,5.97-15.94
				c1.2-4.11,2.28-5.57,4.14-5.57c1.38,0,2.64,0.94,2.64,1.98c0,0.97-0.66,2.69-1.25,4.21c-0.57,1.49-1.07,2.77-1.07,3.55
				c0,0.27,0,1,0.83,1c0.87,0,1.45-0.58,2.34-1.47c6.52-6.88,11.05-9.94,14.69-9.94c2.71,0,5.45,1.63,5.45,5.29
				c0,4.55-1.39,9.42-5.29,9.42c-1.25,0-2.64-1.13-2.64-2.64c0-0.88,0.39-1.93,0.7-2.77c0.26-0.7,0.46-1.26,0.46-1.69
				c0-0.76-0.52-1.66-1.99-1.66c-2.77,0-13.91,11.23-18.93,19.07c-1.8,2.81-3.37,6.33-4.76,9.44
				C100.59,700.07,99.2,703.19,98.6,703.43z"/>
			<path class="st2" d="M128.71,663.6c2.46,0,4.95,1.48,4.95,4.79c0,4.31-1.26,8.92-4.79,8.92c-0.99,0-2.14-0.94-2.14-2.14
				c0-0.79,0.37-1.79,0.66-2.6c0.28-0.75,0.49-1.34,0.49-1.86c0-1.07-0.77-2.16-2.49-2.16c-3.18,0-14.59,11.86-19.36,19.31
				c-1.82,2.84-3.4,6.38-4.79,9.5c-0.99,2.22-2.21,4.95-2.81,5.56c-1.1-0.16-2.62-1.75-2.62-2.79c0-1.34,1.98-7.09,5.05-14.65
				c3.26-7.74,5.28-13.13,5.99-15.98c1.28-4.37,2.31-5.23,3.67-5.23c1.19,0,2.14,0.81,2.14,1.48c0,0.88-0.67,2.63-1.21,4.03
				c-0.59,1.53-1.1,2.86-1.1,3.73c0,1.35,0.93,1.5,1.33,1.5c1.08,0,1.79-0.71,2.71-1.63C120.8,666.62,125.22,663.6,128.71,663.6
				 M128.71,662.6c-4.13,0-8.93,3.64-15.04,10.08c-0.83,0.83-1.32,1.32-1.98,1.32c-0.33,0-0.33-0.17-0.33-0.5
				c0-1.49,2.31-5.79,2.31-7.77c0-1.32-1.49-2.48-3.14-2.48c-2.31,0-3.47,1.98-4.63,5.95c-0.83,3.31-3.31,9.59-5.95,15.87
				c-2.48,6.12-5.12,13.22-5.12,15.04c0,1.65,2.15,3.8,3.8,3.8c1.49,0,4.46-9.59,8.27-15.54c5.29-8.27,16.2-18.84,18.51-18.84
				c0.99,0,1.49,0.5,1.49,1.16c0,0.83-1.16,2.81-1.16,4.46c0,1.82,1.65,3.14,3.14,3.14c4.13,0,5.79-4.79,5.79-9.92
				C134.66,664.59,131.85,662.6,128.71,662.6L128.71,662.6z"/>
		</g>
		<g>
			<path d="M134.49,703.43c-1.36,0-4.46-2.25-4.46-5.95c0-7.63,3.85-15.87,10.56-22.6c6.25-6.27,14.11-10.21,20.52-10.29
				c1.96,0,3.91,1.68,5.2,2.79c0.84,0.72,1.19,1.01,1.57,1.01c0.78,0,1.34-0.7,1.93-1.45c0.75-0.95,1.61-2.03,3.03-2.03
				c2.27,0,3.8,1.19,3.8,2.97c0,1.16-1.62,3.8-3.49,6.87c-1.33,2.17-2.83,4.64-4.22,7.28c-1.95,3.58-3.03,7.01-3.03,9.65
				c0,2.76,1.02,4.47,2.65,4.47c7.58,0,19.97-15.58,22.38-18.71c1.79-2.44,3.17-3.94,4.56-3.94c1.22,0,1.81,0.59,1.81,1.81
				c0,1.28-0.51,2.11-2.37,4.48c-8.93,10.61-21.17,21.96-28.7,21.96c-5.02,0-7.27-3.65-7.27-7.27c0-0.93,0.09-2,0.18-3.04
				c0.08-0.95,0.15-1.85,0.15-2.58c0-1.11,0-1.99-0.83-1.99c-0.82,0-1.87,1.01-4.19,3.3c-1.01,0.99-2.15,2.12-3.42,3.27
				C142.86,700.45,137.96,703.43,134.49,703.43z M158.79,669.87c-7.45,0-22.15,16.02-22.15,24.14c0,1.23,0.85,2.48,2.48,2.48
				c3.24,0,24.8-19.11,24.8-21.99c0-0.72-0.76-0.92-1.37-1.08c-1.01-0.26-1.44-0.47-1.44-1.07
				C161.11,670.85,160.2,669.87,158.79,669.87z"/>
			<path class="st2" d="M161.11,665.09c1.78,0,3.72,1.67,4.88,2.67c0.88,0.75,1.32,1.13,1.9,1.13c1.02,0,1.68-0.83,2.32-1.63
				c0.72-0.9,1.46-1.84,2.64-1.84c2,0,3.3,0.97,3.3,2.47c0,1.01-1.66,3.73-3.42,6.61c-1.33,2.18-2.84,4.65-4.23,7.29
				c-2,3.66-3.1,7.18-3.1,9.9c0,3.06,1.21,4.97,3.15,4.97c2.94,0,6.84-2.2,11.6-6.54c4.82-4.39,9.07-9.63,11.19-12.38
				c1.64-2.24,2.97-3.72,4.15-3.72c0.95,0,1.31,0.37,1.31,1.31c0,1.13-0.48,1.91-2.24,4.15c-8.87,10.54-20.97,21.79-28.33,21.79
				c-5,0-6.77-3.65-6.77-6.77c0-0.91,0.09-1.97,0.17-3c0.08-0.96,0.16-1.87,0.16-2.62c0-1.11,0-2.49-1.33-2.49
				c-1.01,0-2.06,0.99-4.54,3.45c-1,0.99-2.14,2.11-3.39,3.25c-7.9,6.89-12.7,9.84-16.04,9.84c-0.99,0-3.96-1.93-3.96-5.45
				C130.53,681.29,148.04,665.25,161.11,665.09 M139.12,696.99c2.35,0,11.2-7.61,13.86-9.94c4.27-3.75,11.44-10.36,11.44-12.55
				c0-1.11-1.09-1.39-1.75-1.56c-0.96-0.25-1.06-0.37-1.06-0.59c0-1.78-1.13-2.98-2.82-2.98c-7.83,0-22.65,16.12-22.65,24.64
				C136.14,695.49,137.16,696.99,139.12,696.99 M161.11,664.09c-13.55,0.17-31.57,16.53-31.57,33.39c0,3.97,3.31,6.45,4.96,6.45
				c3.8,0,8.93-3.31,16.7-10.08c3.64-3.31,6.28-6.45,7.27-6.45c0.33,0,0.33,0.5,0.33,1.49c0,1.49-0.33,3.8-0.33,5.62
				c0,4.13,2.64,7.77,7.77,7.77c8.26,0,21.16-12.73,29.09-22.15c1.82-2.31,2.48-3.31,2.48-4.79c0-1.32-0.66-2.31-2.31-2.31
				c-1.65,0-3.14,1.65-4.96,4.13c-6.12,7.93-16.03,18.51-21.98,18.51c-1.49,0-2.15-1.82-2.15-3.97c0-2.48,0.99-5.79,2.98-9.42
				c3.47-6.61,7.77-12.23,7.77-14.38c0-1.98-1.65-3.47-4.3-3.47c-2.81,0-3.64,3.47-4.96,3.47
				C167.22,667.89,164.25,664.09,161.11,664.09L161.11,664.09z M139.12,695.99c-1.32,0-1.98-0.99-1.98-1.98
				c0-8.1,14.55-23.64,21.65-23.64c1.32,0,1.82,0.99,1.82,1.98c0,1.82,2.81,1.32,2.81,2.15
				C163.42,677.31,141.93,695.99,139.12,695.99L139.12,695.99z"/>
		</g>
		<g>
			<path d="M192.18,703.26c-3.51,0-9.09-2.6-9.09-9.58c0-10.11,14.8-29.09,27.93-29.09c3.35,0,6.94,3.59,6.94,6.11
				c0,4.58-4.74,8.59-7.6,8.59c-0.96,0-1.81-0.18-1.81-2.31c0-0.88,0.76-1.43,1.64-2.06c1.01-0.73,2.16-1.55,2.16-3.07
				c0-0.88-0.67-1.82-2.15-1.82c-7.24,0-20.5,13.41-20.5,22.82c0,2.52,1.17,5.46,4.47,5.46c6.64,0,20.85-6.47,31.64-20.86
				c1.89-2.36,3.15-3.93,4.72-3.93c1.14,0,1.81,0.68,1.81,1.81c0,1.31-0.6,2.22-2.52,4.47
				C222.63,688.52,206.62,703.26,192.18,703.26z"/>
			<path class="st2" d="M211.02,665.09c3.05,0,6.44,3.34,6.44,5.61c0,4.17-4.43,8.09-7.1,8.09c-0.73,0-1.31,0-1.31-1.81
				c0-0.59,0.55-1.01,1.43-1.65c1.05-0.76,2.37-1.7,2.37-3.47c0-1.12-0.83-2.32-2.65-2.32c-7.6,0-21,13.48-21,23.32
				c0,2.97,1.54,5.96,4.97,5.96c11.2,0,25.48-12.32,32.02-21.04c1.81-2.26,3-3.76,4.34-3.76c1.09,0,1.31,0.71,1.31,1.31
				c0,1.1-0.43,1.84-2.42,4.16c-2.16,2.62-8.09,9.36-16.39,15.17c-7.57,5.3-14.78,8.1-20.85,8.1c-2.23,0-8.59-1.67-8.59-9.08
				c0-4.94,3.56-12.07,9.06-18.15C198.56,668.99,205.43,665.09,211.02,665.09 M211.02,664.09c-13.06,0-28.43,18.84-28.43,29.59
				c0,7.44,6.12,10.08,9.59,10.08c14.22,0,30.25-14.22,38.02-23.64c1.98-2.31,2.65-3.31,2.65-4.79c0-1.32-0.83-2.31-2.31-2.31
				c-1.82,0-3.14,1.65-5.12,4.13c-5.95,7.93-20.17,20.66-31.24,20.66c-2.81,0-3.97-2.48-3.97-4.96c0-9.42,13.22-22.32,20-22.32
				c1.16,0,1.65,0.66,1.65,1.32c0,2.48-3.8,2.81-3.8,5.12c0,2.48,1.16,2.81,2.31,2.81c3.14,0,8.1-4.3,8.1-9.09
				C218.46,667.89,214.66,664.09,211.02,664.09L211.02,664.09z"/>
		</g>
		<g>
			<path d="M229.04,703.59c-5.06,0-10.41-5.1-10.41-9.91c0-0.88-0.13-1.46-0.26-2.01c-0.12-0.52-0.24-1.02-0.24-1.79
				c0-1.28,1.17-2.92,2.51-3.51l0.18-0.08l0.08-0.18c6.9-15.99,17.86-21.68,25.82-21.68c2.83,0,6.28,2.44,6.28,5.29
				c0,3.69-2.94,7.97-8.28,12.06c-4.76,3.65-10.88,6.63-15.96,7.78c-3.28,0.73-3.53,1.98-3.53,3.79c0,1.89,1.14,5.46,5.46,5.46
				c4.85,0,9.28-3.45,12.21-5.73c0.8-0.6,1.46-1.17,2.05-1.67c1.31-1.12,2.18-1.86,3.27-1.86c1.14,0,1.81,0.68,1.81,1.81
				c0,1.21-0.79,2.24-3.11,4.07l-0.37,0.29C241.73,699.41,236.28,703.59,229.04,703.59z M244.75,669.87
				c-5.63,0-15.06,11.22-17.28,14.78l-0.49,0.79l0.93-0.03c5.78-0.17,19.33-9.55,19.33-13.39
				C247.23,670.13,245.97,669.87,244.75,669.87z"/>
			<path class="st2" d="M246.73,664.92c2.6,0,5.78,2.21,5.78,4.79c0,7.39-13.34,16.98-23.85,19.36c-3.32,0.74-3.92,2.02-3.92,4.28
				c0,2.4,1.59,5.96,5.96,5.96c5.02,0,9.53-3.51,12.5-5.82c0.82-0.61,1.49-1.19,2.08-1.69c1.37-1.18,2.07-1.74,2.94-1.74
				c1.09,0,1.31,0.71,1.31,1.31c0,1.03-0.74,1.96-2.91,3.67l-0.38,0.29c-4.75,3.64-10.12,7.77-17.2,7.77
				c-4.82,0-9.91-4.84-9.91-9.41c0-0.94-0.15-1.57-0.27-2.13c-0.12-0.52-0.22-0.96-0.22-1.68c0-1.06,1.08-2.55,2.22-3.05l0.36-0.16
				l0.15-0.36c3.04-7.04,7.26-12.74,12.21-16.48C237.75,666.66,242.42,664.92,246.73,664.92 M226.05,685.97l1.87-0.05
				c3.37-0.1,8.47-2.85,12.13-5.39c1.8-1.25,7.68-5.56,7.68-8.51c0-2.65-2.25-2.65-2.98-2.65c-5.82,0-15.45,11.4-17.71,15.02
				L226.05,685.97 M246.73,663.92c-8.43,0-19.5,6.28-26.28,21.98c-1.49,0.66-2.81,2.48-2.81,3.97c0,1.65,0.5,2.15,0.5,3.8
				c0,5.29,5.79,10.41,10.91,10.41c7.6,0,13.22-4.46,18.18-8.27c2.31-1.82,3.31-2.98,3.31-4.46c0-1.32-0.83-2.31-2.31-2.31
				c-1.82,0-2.97,1.65-5.62,3.64c-2.97,2.31-7.27,5.62-11.9,5.62c-3.97,0-4.96-3.31-4.96-4.96c0-1.65,0.17-2.65,3.14-3.31
				c10.25-2.31,24.63-11.9,24.63-20.33C253.51,666.57,249.87,663.92,246.73,663.92L246.73,663.92z M227.89,684.92
				c2.48-3.97,11.74-14.55,16.86-14.55c1.32,0,1.98,0.33,1.98,1.65C246.73,675.49,233.67,684.75,227.89,684.92L227.89,684.92z"/>
		</g>
		<g>
			<path d="M287.06,703.1c-6.26,0-6.44-5.63-6.44-6.28c0-3.87,2.3-7.91,4.73-12.19c2.63-4.63,5.35-9.43,5.35-14.42
				c0-4.11,1.19-6.11,3.63-6.11c2.51,0,2.97,1.56,2.97,4.62c0,5.6-3.55,12.03-6.4,17.2c-2.07,3.74-3.85,6.98-3.85,9.08
				c0,1.21,0.26,2.81,2.48,2.81c3.1,0,14.21-8.19,19.26-15.93c0.87-1.45,1.79-3.1,2.76-4.85c1.8-3.24,3.66-6.58,5.15-8.5
				c1.53-2.05,3.04-3.11,3.74-3.11c2,0,2.97,0.86,2.97,2.64c-0.01,0.34-0.72,2.01-1.88,3.5c-1.48,2.07-4.13,6.16-5.38,10.42
				c-1.44,4.49-2.17,7.99-2.17,10.39c0,2.69,0.99,4.3,2.65,4.3c4.2,0,14.75-11.23,20.89-19.2c1.79-2.44,3.17-3.94,4.56-3.94
				c1.22,0,1.81,0.59,1.81,1.81c0,1.28-0.51,2.11-2.37,4.48c-6.5,7.72-18.63,22.12-26.05,22.12c-4.28,0-6.44-2.72-6.44-8.1
				c0-0.98,0.1-1.88,0.19-2.67c0.07-0.64,0.14-1.25,0.14-1.79v-1.21l-0.85,0.85C302.49,695.07,293.69,703.1,287.06,703.1z"/>
			<path class="st2" d="M294.34,664.59c1.94,0,2.47,0.89,2.47,4.12c0,5.48-3.51,11.84-6.34,16.96c-2.19,3.96-3.91,7.09-3.91,9.32
				c0,2.2,1,3.31,2.98,3.31c3.61,0,14.8-8.67,19.7-16.19c0.86-1.44,1.79-3.1,2.76-4.85c1.79-3.22,3.64-6.55,5.12-8.45
				c1.63-2.17,2.97-2.91,3.33-2.91c1.71,0,2.47,0.66,2.47,2.1c-0.05,0.35-0.71,1.87-1.8,3.27c-1.49,2.08-4.17,6.23-5.43,10.53
				c-1.46,4.55-2.2,8.1-2.2,10.55c0,4.46,2.41,4.8,3.15,4.8c5.17,0,17.41-14.37,21.3-19.42c1.64-2.24,2.97-3.72,4.15-3.72
				c0.95,0,1.31,0.37,1.31,1.31c0,1.13-0.48,1.91-2.24,4.15c-6,7.13-18.49,21.96-25.68,21.96c-4,0-5.94-2.48-5.94-7.6
				c0-0.96,0.1-1.84,0.19-2.62c0.07-0.66,0.14-1.28,0.14-1.85v-2.41l-1.71,1.71c-5.98,5.98-14.67,13.92-21.11,13.92
				c-5.66,0-5.94-4.81-5.94-5.78c0-3.73,2.27-7.72,4.66-11.94c2.66-4.69,5.42-9.54,5.42-14.67
				C291.2,664.59,293.48,664.59,294.34,664.59 M294.34,663.59c-3.14,0-4.13,2.81-4.13,6.61c0,9.42-10.08,18.35-10.08,26.61
				c0,2.64,1.49,6.78,6.94,6.78c6.94,0,15.87-8.27,21.82-14.22c0,1.16-0.33,2.64-0.33,4.46c0,3.97,1.16,8.6,6.94,8.6
				c7.27,0,18.51-12.89,26.45-22.32c1.82-2.31,2.48-3.31,2.48-4.79c0-1.32-0.66-2.31-2.31-2.31c-1.65,0-3.14,1.65-4.96,4.13
				c-6.12,7.93-16.53,19.01-20.5,19.01c-1.32,0-2.15-1.32-2.15-3.8c0-2.48,0.83-6.12,2.15-10.25c1.16-3.97,3.64-7.93,5.29-10.25
				c1.16-1.49,1.98-3.31,1.98-3.8c0-1.49-0.66-3.14-3.47-3.14c-0.99,0-2.65,1.32-4.13,3.31c-2.31,2.98-5.46,9.26-7.93,13.39
				c-4.96,7.6-15.87,15.7-18.84,15.7c-1.65,0-1.98-0.99-1.98-2.31c0-4.79,10.25-16.53,10.25-26.28
				C297.81,665.91,297.48,663.59,294.34,663.59L294.34,663.59z"/>
		</g>
		<g>
			<path d="M320.95,752.02c-2.17,0-3.47-1.85-3.47-4.95c0-13.67,7.23-35.9,11.54-47.93c3.56-10.17,9.82-24.27,11.71-28.05
				c1.83-3.38,4.01-7,6.66-7c1.29,0,3.96,0.52,3.96,2.15c0,1.27-1.44,3.33-2.96,5.51c-0.83,1.19-1.69,2.42-2.42,3.66
				c-0.14,0.24-0.27,0.46-0.38,0.66c-0.49,0.82-0.84,1.42-0.84,2.08c0,0.67,0.42,1.16,1,1.16h0.22l0.15-0.17
				c10.93-12.28,20.09-15.04,22.44-15.04c2.26,0,5.45,2.26,5.45,7.27c0,8.33-12.14,32.39-30.91,32.39c-2.26,0-3.97-1.16-4.99-1.85
				c-0.58-0.4-0.94-0.63-1.29-0.63c-3.81,0-12.73,28.27-12.73,40.34c0,2.03,0.27,3.27,0.51,4.37c0.17,0.78,0.32,1.45,0.32,2.25
				C324.91,749.76,322.82,752.02,320.95,752.02z M364.42,670.86c-6.22,0-23.15,15.35-26.26,23.8l-0.08,0.23l0.13,0.21
				c0.07,0.12,1.84,2.88,5.55,2.88c14.14,0,23.64-20.12,23.64-24.3C367.4,672.28,366.38,670.86,364.42,670.86z"/>
			<path class="st2" d="M368.56,664.59c2,0,4.95,2.15,4.95,6.77c0,4.21-2.89,12.19-8.43,19.3c-8.52,10.95-17.43,12.59-21.98,12.59
				c-2.11,0-3.68-1.06-4.71-1.76c-0.64-0.43-1.06-0.72-1.57-0.72c-0.92,0-2.06,0.62-4.14,5.08c-1.29,2.78-2.75,6.66-4.1,10.95
				c-2.41,7.62-4.98,18.14-4.98,24.81c0,2.08,0.29,3.41,0.52,4.47c0.17,0.78,0.3,1.39,0.3,2.14c0,1.27-1.89,3.3-3.46,3.3
				c-1.86,0-2.97-1.67-2.97-4.45c0-13.6,7.21-35.76,11.52-47.77c3.5-9.99,9.86-24.33,11.67-27.95c2.19-4.05,4.09-6.75,6.23-6.75
				c1.21,0,3.46,0.48,3.46,1.65c0,1.11-1.46,3.2-2.87,5.22c-0.83,1.2-1.7,2.43-2.45,3.71c-0.13,0.23-0.26,0.45-0.38,0.64
				c-0.51,0.86-0.91,1.53-0.91,2.33c0,0.95,0.64,1.66,1.5,1.66h0.45l0.3-0.33C357.3,667.33,366.27,664.59,368.56,664.59
				 M343.76,698.48c14.51,0,24.14-20,24.14-24.8c0-1.65-1.2-3.31-3.48-3.31c-6.34,0-23.58,15.56-26.72,24.13l-0.17,0.46l0.26,0.42
				C337.87,695.49,339.78,698.48,343.76,698.48 M368.56,663.59c-2.81,0-12.07,3.14-22.81,15.21c-0.33,0-0.5-0.33-0.5-0.66
				c0-0.66,0.5-1.32,1.16-2.48c2.15-3.64,5.46-7.27,5.46-9.42c0-1.98-2.81-2.65-4.46-2.65c-2.81,0-4.96,3.31-7.11,7.27
				c-1.98,3.97-8.27,18.18-11.74,28.1c-3.97,11.08-11.57,33.89-11.57,48.1c0,3.97,1.98,5.45,3.97,5.45c2.15,0,4.46-2.48,4.46-4.3
				c0-1.98-0.83-3.14-0.83-6.61c0-12.23,9.09-39.84,12.23-39.84c0.66,0,2.81,2.48,6.28,2.48c18.84,0,31.41-23.64,31.41-32.89
				C374.51,666.24,371.2,663.59,368.56,663.59L368.56,663.59z M343.76,697.48c-3.47,0-5.12-2.65-5.12-2.65
				c2.98-8.1,19.84-23.47,25.79-23.47c1.65,0,2.48,1.16,2.48,2.31C366.9,677.97,357.48,697.48,343.76,697.48L343.76,697.48z"/>
		</g>
		<g>
			<path d="M385.09,703.76c-4.22,0-8.76-3.15-8.76-10.08c0-14.65,12.09-29.58,23.96-29.58c5.47,0,8.43,2.55,8.43,4.96
				c0,1.39,0,5.62,3.14,5.62c4.65,0,9.1-2.1,12.04-3.49c1.23-0.58,2.4-1.13,2.83-1.13c1.43,0,2.48,0.97,2.48,2.31
				c0,1.07-1.27,2.91-7.31,5.66c-5.73,2.63-12.81,2.77-14.17,2.77h-0.35l-0.12,0.33C405.4,686.43,398.31,703.76,385.09,703.76z
				 M399.3,670.53c-7.8,0-17.03,12.55-17.03,23.15c0,3.44,2.39,5.29,4.63,5.29c6.66,0,15.38-14.89,15.38-20.34
				c0-0.41-0.34-0.67-0.81-1.02c-0.7-0.53-1.67-1.25-1.67-2.45c0-0.96,0.18-1.81,0.32-2.49c0.1-0.47,0.18-0.84,0.18-1.15
				C400.3,670.92,399.91,670.53,399.3,670.53z"/>
			<path class="st2" d="M400.29,664.59c5.77,0,7.93,2.73,7.93,4.46c0,4.06,1.23,6.12,3.64,6.12c4.76,0,9.27-2.13,12.26-3.54
				c1.01-0.48,2.27-1.08,2.62-1.09c1.14,0,1.98,0.76,1.98,1.81c0,0.61-0.68,2.33-7.02,5.21c-5.63,2.59-12.62,2.72-13.96,2.72h-0.71
				l-0.23,0.67c-1.17,3.35-3.79,9.75-8.11,14.89c-4.13,4.92-8.7,7.41-13.59,7.41c-2.16,0-4.17-0.83-5.65-2.33
				c-1.7-1.72-2.6-4.23-2.6-7.25c0-6.98,2.79-14.33,7.66-20.17C389.15,667.93,395.05,664.59,400.29,664.59 M386.9,699.47
				c4.33,0,8.55-5.33,10.69-8.5c3.06-4.55,5.19-9.62,5.19-12.34c0-0.66-0.49-1.03-1.01-1.42c-0.8-0.6-1.47-1.17-1.47-2.05
				c0-0.91,0.17-1.73,0.31-2.38c0.1-0.5,0.19-0.89,0.19-1.25c0-0.88-0.62-1.5-1.5-1.5c-8.03,0-17.53,12.82-17.53,23.65
				C381.77,697.44,384.42,699.47,386.9,699.47 M400.29,663.59c-11.57,0-24.46,14.71-24.46,30.08c0,7.11,4.63,10.58,9.26,10.58
				c11.57,0,19.17-13.06,22.65-22.98c0.66,0,8.26,0,14.38-2.81c5.46-2.48,7.6-4.46,7.6-6.12s-1.32-2.81-2.98-2.81
				c-1.65,0-8.1,4.63-14.88,4.63c-2.64,0-2.64-3.8-2.64-5.12C409.22,666.57,406.41,663.59,400.29,663.59L400.29,663.59z
				 M386.9,698.47c-2.15,0-4.13-1.82-4.13-4.79c0-10.74,9.42-22.65,16.53-22.65c0.33,0,0.5,0.17,0.5,0.5c0,0.66-0.5,1.98-0.5,3.64
				c0,2.15,2.48,2.98,2.48,3.47C401.78,683.59,393.35,698.47,386.9,698.47L386.9,698.47z"/>
		</g>
		<g>
			<path d="M421.45,704.58c-2.36,0-4.46-1.57-4.46-2.81c0-1.29,1.93-7.18,3.97-13.42c1.72-5.27,3.68-11.25,4.94-15.87l0.07-0.24
				c2.38-8.57,3.18-11.46,7.72-11.46c0.59,0,2.14,0.66,2.14,2.15c0,2.55-1.9,8.07-3.43,12.51c-1.25,3.64-2.02,5.92-2.02,6.83
				c0,0.73,0,1.49,0.67,1.49h0.24l0.15-0.18c12.3-14.99,21.13-18.99,24.41-18.99c3.06,0,5.45,2.47,5.45,5.62
				c0,1.63-0.25,4.56-0.49,7.4c-0.25,2.85-0.5,5.81-0.5,7.48c0,5.64,0.61,11.41,5.13,11.41c2.54,0,5.65-2.14,7.48-4.13
				c0.45-0.41,0.91-0.87,1.35-1.3c1.45-1.43,2.7-2.67,3.91-2.67c0.83,0,1.81,0.29,1.81,1.65c0,1.23-0.17,2.27-2.33,4.44
				c-3.71,3.52-8.24,7.29-15.02,7.29c-6.2,0-9.09-4.94-9.09-15.53c0-1.54,0.13-3.75,0.26-5.89c0.12-1.97,0.23-3.82,0.23-5.02
				c0-0.86,0-3.15-2.48-3.15c-5.71,0-19.34,17.25-23.39,23.19c-1.16,1.63-2.1,3.28-2.93,4.74
				C423.79,702.61,422.67,704.58,421.45,704.58z"/>
			<path class="st2" d="M433.68,661.29c0.29,0,1.64,0.43,1.64,1.65c0,2.47-1.89,7.94-3.4,12.34c-1.31,3.8-2.05,6-2.05,7
				c0,0.7,0,1.99,1.17,1.99h0.47l0.3-0.37c12.18-14.85,20.83-18.81,24.02-18.81c2.78,0,4.95,2.25,4.95,5.12
				c0,1.61-0.25,4.53-0.49,7.35c-0.25,2.87-0.5,5.83-0.5,7.52c0,5.89,0.67,11.91,5.63,11.91c2.69,0,5.86-2.13,7.82-4.26
				c0.48-0.44,0.92-0.88,1.36-1.31c1.31-1.3,2.55-2.53,3.55-2.53c1.17,0,1.31,0.61,1.31,1.15c0,1.15-0.15,2.05-2.17,4.07
				c-3.65,3.47-8.09,7.16-14.68,7.16c-5.86,0-8.59-4.78-8.59-15.03c0-1.53,0.13-3.73,0.26-5.86c0.12-1.97,0.23-3.84,0.23-5.05
				c0-2.42-1-3.65-2.98-3.65c-3.86,0-10.2,6.83-12.28,9.08c-4.56,4.92-9.07,10.74-11.51,14.31c-1.19,1.66-2.13,3.32-2.97,4.79
				c-1.23,2.17-2.4,4.21-3.33,4.21c-2.15,0-3.96-1.42-3.96-2.31c0-1.21,2-7.34,3.94-13.27c1.72-5.28,3.68-11.26,4.95-15.89
				l0.07-0.24C428.94,663.41,429.68,661.29,433.68,661.29 M433.68,660.29c-4.96,0-5.79,3.14-8.27,12.07
				c-2.81,10.25-8.93,26.94-8.93,29.42c0,1.65,2.48,3.31,4.96,3.31c2.31,0,3.8-4.79,7.11-9.42c4.96-7.27,17.85-22.98,22.98-22.98
				c1.65,0,1.98,1.16,1.98,2.65c0,2.48-0.5,7.93-0.5,10.91c0,7.11,1.16,16.03,9.59,16.03c7.27,0,12.07-4.3,15.37-7.44
				c2.15-2.15,2.48-3.31,2.48-4.79c0-1.32-0.83-2.15-2.31-2.15c-1.82,0-3.47,2.15-5.62,4.13c-1.82,1.98-4.79,3.97-7.11,3.97
				c-3.47,0-4.63-3.8-4.63-10.91c0-3.31,0.99-11.57,0.99-14.88c0-3.47-2.64-6.12-5.95-6.12c-3.8,0-12.73,4.46-24.79,19.17
				c-0.17,0-0.17-0.5-0.17-0.99c0-2.15,5.46-14.88,5.46-19.34C436.33,661.11,434.51,660.29,433.68,660.29L433.68,660.29z"/>
		</g>
		<g>
			<path d="M502.12,764.75c-8.13,0-13.38-5.25-13.38-13.38c0-24.85,36.6-43.88,56.26-54.11l0.2-0.1l0.05-0.22
				c1.62-6.47,2.66-11.9,3.21-14.82c0.19-0.98,0.35-1.83,0.4-1.97l1.6-3.2l-2.43,2.68c-4.95,5.42-18.91,16.04-28.72,16.04
				c-8.38,0-13.39-5.37-13.39-14.38c0-4.51,0.71-9.02,2.12-13.4l0.21-0.65h-0.69c-7.33,0-8.43-2.59-8.43-4.13
				c0-0.62,0.24-2.64,3.3-2.64c1.2,0,2.43,0.19,3.72,0.39c1.16,0.18,2.36,0.36,3.69,0.44l0.35,0.02l0.14-0.33
				c3.35-7.94,7.72-15.19,12.98-21.53c12.33-14.87,33.35-27.42,45.9-27.42c7.1,0,10.41,3.26,10.41,10.24
				c0,9.92-15.4,26.19-29.17,34.11c-13.91,7.75-29.12,9.94-35.01,10.52l-0.33,0.03l-0.1,0.31c-1.53,4.76-2.34,9.38-2.34,13.38
				c0,5.66,1.49,9.43,8.76,9.43c10.16,0,29.56-19.03,31.51-22.4c2.09-3.06,3.12-3.55,5.35-3.55c1.07,0,1.98,0.98,1.98,2.15
				c0,1.2-0.69,2.67-1.65,4.71c-1.11,2.36-2.63,5.58-3.79,10.04l-0.47,2.1c-0.57,2.56-1.24,5.56-2.02,9.16l-0.24,1.12l0.98-0.58
				c7.04-4.17,14.84-9.25,19.32-15.34c1.89-2.36,3.14-3.93,4.72-3.93c1.14,0,1.81,0.68,1.81,1.81c0,1.31-0.6,2.22-2.52,4.47
				c-6.89,8.3-16.75,14.55-25.49,19.56l-0.19,0.11l-0.05,0.21C541.42,737.38,520.98,764.75,502.12,764.75z M542.57,703.97
				c-16.68,7.71-48.23,27.34-48.23,46.41c0,6.06,2.92,9.26,8.43,9.26c13.59,0,34.4-28.32,40.49-55.1l0.23-0.99L542.57,703.97z
				 M567.91,618.13c-10.64,0-29.74,13.52-39.07,25.15c-4.27,5.06-7.97,10.77-10.97,16.96l-0.39,0.8l0.89-0.09
				c10.47-1.05,19.82-3.85,27.8-8.33c16.81-9.54,27.53-24.32,27.53-28.87C573.69,620.39,571.37,618.13,567.91,618.13z"/>
			<path class="st2" d="M569.23,612.52c6.76,0,9.91,3.1,9.91,9.74c0,3.85-2.96,9.79-7.92,15.9c-5.59,6.89-13.05,13.2-20.99,17.77
				c-13.83,7.71-28.96,9.88-34.82,10.46l-0.65,0.06l-0.2,0.62c-1.55,4.81-2.36,9.49-2.36,13.53c0,7.05,2.68,9.93,9.26,9.93
				c10.28,0,29.84-19.11,31.92-22.61c1.99-2.9,2.89-3.34,4.94-3.34c0.8,0,1.48,0.75,1.48,1.65c0,1.09-0.67,2.52-1.6,4.5
				c-1.12,2.37-2.65,5.62-3.83,10.16l-0.46,2.08c-0.58,2.61-1.24,5.56-2.02,9.17l-0.48,2.23l1.97-1.16
				c7.08-4.19,14.94-9.31,19.45-15.45c1.81-2.26,3-3.75,4.34-3.75c1.09,0,1.31,0.71,1.31,1.31c0,1.1-0.43,1.84-2.41,4.15
				c-6.83,8.24-16.65,14.45-25.35,19.44l-0.37,0.21l-0.1,0.42c-9.25,37.49-29.48,64.7-48.12,64.7c-7.83,0-12.88-5.06-12.88-12.88
				c0-24.55,36.42-43.49,55.99-53.66l0.4-0.21l0.11-0.44c1.62-6.48,2.66-11.93,3.22-14.85c0.17-0.88,0.32-1.65,0.37-1.88l3.16-6.34
				l-4.83,5.28c-4.9,5.36-18.69,15.87-28.35,15.87c-8.19,0-12.89-5.06-12.89-13.88c0-4.45,0.71-8.91,2.1-13.25l0.42-1.31h-1.37
				c-5.04,0-7.93-1.32-7.93-3.63c0-0.64,0.27-2.14,2.8-2.14c1.16,0,2.37,0.18,3.65,0.38c1.17,0.18,2.38,0.36,3.73,0.44l0.71,0.04
				l0.27-0.65c3.33-7.9,7.68-15.1,12.91-21.4C537.24,623.47,558.16,612.52,569.23,612.52 M516.63,661.63l1.78-0.18
				c10.54-1.05,19.96-3.88,28-8.39c16.96-9.62,27.78-24.65,27.78-29.3c0-3.66-2.53-6.12-6.29-6.12c-9.03,0-27.83,10.83-39.44,25.32
				c-4.31,5.1-8.02,10.85-11.05,17.07L516.63,661.63 M502.78,760.14c15.01,0,35.42-31.03,40.98-55.49l0.45-1.98l-1.85,0.85
				c-3.9,1.8-17.58,8.46-29.94,18.52c-12.32,10.02-18.57,19.56-18.57,28.34C493.84,758.44,498.7,760.14,502.78,760.14
				 M569.23,611.52c-12.23,0-33.39,12.07-46.28,27.6c-5.62,6.78-9.92,14.22-13.06,21.65c-2.81-0.17-5.12-0.83-7.44-0.83
				c-2.81,0-3.8,1.65-3.8,3.14c0,1.82,1.32,4.63,8.93,4.63c-1.49,4.63-2.15,9.26-2.15,13.55c0,9.92,5.79,14.88,13.89,14.88
				c9.92,0,23.8-10.41,29.09-16.2c-0.17,0.33-1.32,7.6-3.64,16.86c-20.66,10.74-56.53,29.75-56.53,54.55
				c0,8.43,5.62,13.88,13.88,13.88c19.67,0,40-28.6,49.09-65.46c10.08-5.79,19.17-11.9,25.62-19.67c1.98-2.31,2.64-3.31,2.64-4.79
				c0-1.32-0.83-2.31-2.31-2.31c-1.82,0-3.14,1.65-5.12,4.13c-4.13,5.62-11.07,10.41-19.17,15.21c0.99-4.63,1.82-8.26,2.48-11.24
				c2.15-8.26,5.45-12.07,5.45-14.88c0-1.49-1.16-2.65-2.48-2.65c-2.48,0-3.64,0.66-5.79,3.8c-1.82,3.14-21.16,22.15-31.08,22.15
				c-6.45,0-8.26-2.98-8.26-8.93c0-3.97,0.83-8.6,2.31-13.22c10.08-0.99,23.64-4.13,35.21-10.58
				c17.52-10.08,29.42-26.45,29.42-34.55C580.14,614.83,576.34,611.52,569.23,611.52L569.23,611.52z M518.32,660.45
				c2.81-5.79,6.45-11.57,10.91-16.86c11.41-14.22,30.08-24.96,38.68-24.96c3.47,0,5.29,2.31,5.29,5.12
				c0,3.97-10.08,18.68-27.27,28.43C536.5,657.48,526.58,659.63,518.32,660.45L518.32,660.45z M542.78,704.42
				c-5.79,25.46-26.28,54.71-40,54.71c-5.46,0-7.93-3.14-7.93-8.76C494.84,731.04,527.41,711.53,542.78,704.42L542.78,704.42z"/>
		</g>
		<g>
			<path d="M569.21,703.43c-1.39-0.02-3.28-1.92-3.28-3.3c0-1.42,1.95-7.11,5.09-14.85c3.25-7.71,5.26-13.07,5.97-15.94
				c1.2-4.11,2.28-5.57,4.14-5.57c1.38,0,2.64,0.94,2.64,1.98c0,0.97-0.66,2.69-1.25,4.21c-0.57,1.49-1.07,2.77-1.07,3.55
				c0,0.27,0,1,0.83,1c0.87,0,1.45-0.58,2.34-1.47c6.52-6.88,11.05-9.94,14.69-9.94c2.71,0,5.45,1.63,5.45,5.29
				c0,4.55-1.39,9.42-5.29,9.42c-1.25,0-2.64-1.13-2.64-2.64c0-0.88,0.39-1.93,0.7-2.77c0.26-0.7,0.46-1.26,0.46-1.69
				c0-0.76-0.52-1.66-1.99-1.66c-2.77,0-13.91,11.23-18.93,19.07c-1.8,2.81-3.37,6.33-4.76,9.44
				C571.19,700.07,569.8,703.19,569.21,703.43z"/>
			<path class="st2" d="M599.31,663.6c2.28,0,4.95,1.25,4.95,4.79c0,4.31-1.26,8.92-4.79,8.92c-0.99,0-2.14-0.94-2.14-2.14
				c0-0.79,0.37-1.79,0.66-2.6c0.28-0.75,0.49-1.34,0.49-1.86c0-1.07-0.77-2.16-2.49-2.16c-3.18,0-14.59,11.86-19.36,19.31
				c-1.82,2.84-3.4,6.38-4.79,9.51c-0.99,2.22-2.21,4.95-2.81,5.56c-1.1-0.16-2.62-1.75-2.62-2.79c0-1.34,1.98-7.1,5.05-14.65
				c3.26-7.73,5.28-13.12,5.99-15.98c1.28-4.37,2.31-5.23,3.67-5.23c1.19,0,2.14,0.81,2.14,1.48c0,0.88-0.67,2.63-1.21,4.03
				c-0.59,1.53-1.1,2.86-1.1,3.73c0,1.35,0.93,1.5,1.33,1.5c1.08,0,1.79-0.71,2.71-1.63C591.41,666.62,595.82,663.6,599.31,663.6
				 M599.31,662.6c-4.13,0-8.93,3.64-15.04,10.08c-0.83,0.83-1.32,1.32-1.98,1.32c-0.33,0-0.33-0.17-0.33-0.5
				c0-1.49,2.31-5.79,2.31-7.77c0-1.32-1.49-2.48-3.14-2.48c-2.31,0-3.47,1.98-4.63,5.95c-0.83,3.31-3.31,9.59-5.95,15.87
				c-2.48,6.12-5.12,13.22-5.12,15.04c0,1.65,2.15,3.8,3.8,3.8c1.49,0,4.46-9.59,8.26-15.54c5.29-8.27,16.2-18.84,18.51-18.84
				c0.99,0,1.49,0.5,1.49,1.16c0,0.83-1.16,2.81-1.16,4.46c0,1.82,1.65,3.14,3.14,3.14c4.13,0,5.79-4.79,5.79-9.92
				C605.26,664.59,602.45,662.6,599.31,662.6L599.31,662.6z"/>
		</g>
		<g>
			<path d="M605.1,703.43c-1.36,0-4.46-2.25-4.46-5.95c0-7.63,3.85-15.87,10.56-22.6c6.25-6.27,14.11-10.21,20.52-10.29
				c1.96,0,3.91,1.68,5.2,2.79c0.84,0.72,1.19,1.01,1.57,1.01c0.78,0,1.34-0.7,1.93-1.45c0.75-0.95,1.61-2.03,3.03-2.03
				c2.27,0,3.8,1.19,3.8,2.97c0,1.16-1.62,3.81-3.49,6.87c-1.33,2.17-2.83,4.64-4.22,7.27c-1.96,3.58-3.03,7.01-3.03,9.65
				c0,2.76,1.02,4.47,2.65,4.47c7.58,0,19.97-15.58,22.38-18.71c1.79-2.44,3.17-3.94,4.56-3.94c1.22,0,1.81,0.59,1.81,1.81
				c0,1.28-0.51,2.11-2.37,4.48c-8.93,10.61-21.17,21.96-28.7,21.96c-5.02,0-7.27-3.65-7.27-7.27c0-0.93,0.09-2,0.18-3.04
				c0.08-0.95,0.16-1.85,0.16-2.58c0-1.11,0-1.99-0.83-1.99c-0.81,0-1.87,1.01-4.19,3.3c-1.01,1-2.15,2.12-3.42,3.28
				C613.46,700.45,608.57,703.43,605.1,703.43z M629.4,669.87c-7.45,0-22.15,16.02-22.15,24.14c0,1.23,0.85,2.48,2.48,2.48
				c3.25,0,24.8-19.11,24.8-21.99c0-0.72-0.76-0.92-1.37-1.08c-1.01-0.26-1.44-0.47-1.44-1.07
				C631.72,670.85,630.81,669.87,629.4,669.87z"/>
			<path class="st2" d="M631.72,665.09c1.78,0,3.72,1.67,4.88,2.67c0.88,0.75,1.32,1.13,1.9,1.13c1.02,0,1.68-0.83,2.32-1.63
				c0.72-0.9,1.46-1.84,2.64-1.84c2,0,3.3,0.97,3.3,2.47c0,1.02-1.66,3.73-3.42,6.61c-1.33,2.18-2.84,4.65-4.23,7.29
				c-2,3.66-3.1,7.18-3.1,9.9c0,3.06,1.21,4.97,3.15,4.97c2.94,0,6.84-2.2,11.6-6.54c4.82-4.39,9.07-9.63,11.19-12.38
				c1.64-2.24,2.97-3.72,4.15-3.72c0.95,0,1.31,0.37,1.31,1.31c0,1.13-0.48,1.91-2.24,4.15c-8.87,10.54-20.97,21.79-28.33,21.79
				c-5,0-6.77-3.65-6.77-6.77c0-0.91,0.09-1.97,0.17-3c0.08-0.96,0.16-1.87,0.16-2.62c0-1.11,0-2.49-1.33-2.49
				c-1.01,0-2.06,0.99-4.54,3.45c-1,0.99-2.14,2.12-3.39,3.25c-7.9,6.89-12.7,9.84-16.04,9.84c-0.99,0-3.96-1.93-3.96-5.45
				C601.14,681.29,618.65,665.25,631.72,665.09 M609.73,696.99c2.35,0,11.21-7.61,13.86-9.94c4.27-3.75,11.44-10.36,11.44-12.55
				c0-1.11-1.09-1.39-1.75-1.56c-0.96-0.25-1.06-0.37-1.06-0.59c0-1.78-1.13-2.98-2.82-2.98c-7.83,0-22.65,16.12-22.65,24.64
				C606.74,695.49,607.77,696.99,609.73,696.99 M631.71,664.09c-13.55,0.17-31.57,16.53-31.57,33.39c0,3.97,3.31,6.45,4.96,6.45
				c3.8,0,8.93-3.31,16.7-10.08c3.64-3.31,6.28-6.45,7.27-6.45c0.33,0,0.33,0.5,0.33,1.49c0,1.49-0.33,3.8-0.33,5.62
				c0,4.13,2.65,7.77,7.77,7.77c8.26,0,21.16-12.73,29.09-22.15c1.82-2.31,2.48-3.31,2.48-4.79c0-1.32-0.66-2.31-2.31-2.31
				s-3.14,1.65-4.96,4.13c-6.12,7.93-16.03,18.51-21.98,18.51c-1.49,0-2.15-1.82-2.15-3.97c0-2.48,0.99-5.79,2.98-9.42
				c3.47-6.61,7.77-12.23,7.77-14.38c0-1.98-1.65-3.47-4.3-3.47c-2.81,0-3.64,3.47-4.96,3.47
				C637.83,667.89,634.85,664.09,631.71,664.09L631.71,664.09z M609.73,695.99c-1.32,0-1.98-0.99-1.98-1.98
				c0-8.1,14.55-23.64,21.65-23.64c1.32,0,1.82,0.99,1.82,1.98c0,1.82,2.81,1.32,2.81,2.15
				C634.02,677.31,612.54,695.99,609.73,695.99L609.73,695.99z"/>
		</g>
		<g>
			<path d="M662.79,703.26c-3.51,0-9.09-2.6-9.09-9.58c0-10.11,14.8-29.09,27.93-29.09c3.35,0,6.94,3.59,6.94,6.11
				c0,4.58-4.74,8.59-7.6,8.59c-0.96,0-1.81-0.18-1.81-2.31c0-0.88,0.76-1.43,1.64-2.06c1.01-0.73,2.16-1.55,2.16-3.07
				c0-0.88-0.67-1.82-2.15-1.82c-7.24,0-20.5,13.41-20.5,22.82c0,2.52,1.17,5.46,4.47,5.46c6.64,0,20.85-6.47,31.64-20.86
				c1.89-2.36,3.15-3.93,4.72-3.93c1.14,0,1.81,0.68,1.81,1.81c0,1.31-0.6,2.22-2.52,4.47
				C693.24,688.52,677.23,703.26,662.79,703.26z"/>
			<path class="st2" d="M681.63,665.09c3.05,0,6.44,3.34,6.44,5.61c0,4.17-4.43,8.09-7.1,8.09c-0.73,0-1.31,0-1.31-1.81
				c0-0.59,0.55-1.01,1.43-1.65c1.05-0.76,2.37-1.7,2.37-3.47c0-1.12-0.83-2.32-2.65-2.32c-7.6,0-21,13.48-21,23.32
				c0,2.97,1.54,5.96,4.97,5.96c11.2,0,25.48-12.32,32.02-21.04c1.81-2.26,3-3.76,4.34-3.76c1.09,0,1.31,0.71,1.31,1.31
				c0,1.1-0.43,1.84-2.42,4.16c-2.16,2.62-8.09,9.36-16.39,15.17c-7.57,5.3-14.78,8.1-20.85,8.1c-2.23,0-8.59-1.67-8.59-9.08
				c0-4.94,3.56-12.07,9.06-18.15C669.17,668.99,676.04,665.09,681.63,665.09 M681.63,664.09c-13.06,0-28.43,18.84-28.43,29.59
				c0,7.44,6.12,10.08,9.59,10.08c14.22,0,30.25-14.22,38.02-23.64c1.98-2.31,2.64-3.31,2.64-4.79c0-1.32-0.83-2.31-2.31-2.31
				c-1.82,0-3.14,1.65-5.12,4.13c-5.95,7.93-20.17,20.66-31.24,20.66c-2.81,0-3.97-2.48-3.97-4.96c0-9.42,13.22-22.32,20-22.32
				c1.16,0,1.65,0.66,1.65,1.32c0,2.48-3.8,2.81-3.8,5.12c0,2.48,1.16,2.81,2.31,2.81c3.14,0,8.1-4.3,8.1-9.09
				C689.07,667.89,685.27,664.09,681.63,664.09L681.63,664.09z"/>
		</g>
		<g>
			<path d="M699.65,703.59c-5.06,0-10.41-5.1-10.41-9.91c0-0.88-0.13-1.46-0.26-2.01c-0.12-0.52-0.24-1.02-0.24-1.79
				c0-1.28,1.17-2.92,2.51-3.51l0.18-0.08l0.08-0.18c6.9-15.99,17.86-21.68,25.82-21.68c2.83,0,6.28,2.44,6.28,5.29
				c0,3.69-2.94,7.97-8.28,12.06c-4.76,3.65-10.88,6.63-15.96,7.78c-3.28,0.73-3.53,1.98-3.53,3.79c0,1.89,1.14,5.46,5.46,5.46
				c4.85,0,9.28-3.45,12.21-5.73c0.79-0.6,1.46-1.16,2.04-1.67c1.31-1.12,2.18-1.87,3.27-1.87c1.14,0,1.81,0.68,1.81,1.81
				c0,1.21-0.79,2.24-3.11,4.07l-0.37,0.29C712.34,699.41,706.89,703.59,699.65,703.59z M715.35,669.87
				c-5.63,0-15.06,11.22-17.29,14.78l-0.5,0.79l0.93-0.03c5.78-0.17,19.33-9.55,19.33-13.39
				C717.83,670.13,716.58,669.87,715.35,669.87z"/>
			<path class="st2" d="M717.33,664.92c2.6,0,5.78,2.21,5.78,4.79c0,7.39-13.34,16.98-23.85,19.36c-3.32,0.74-3.92,2.02-3.92,4.28
				c0,2.4,1.59,5.96,5.96,5.96c5.02,0,9.53-3.51,12.5-5.82c0.81-0.61,1.48-1.19,2.08-1.69c1.38-1.18,2.08-1.74,2.94-1.74
				c1.09,0,1.31,0.71,1.31,1.31c0,1.03-0.74,1.96-2.91,3.67l-0.38,0.29c-4.75,3.64-10.12,7.77-17.2,7.77
				c-4.82,0-9.91-4.84-9.91-9.41c0-0.94-0.15-1.57-0.27-2.13c-0.12-0.52-0.22-0.96-0.22-1.68c0-1.06,1.08-2.55,2.22-3.05l0.36-0.16
				l0.15-0.36c3.04-7.04,7.26-12.74,12.21-16.48C708.35,666.66,713.03,664.92,717.33,664.92 M696.65,685.97l1.87-0.05
				c3.37-0.1,8.48-2.85,12.13-5.39c1.8-1.25,7.68-5.56,7.68-8.51c0-2.65-2.25-2.65-2.98-2.65c-5.82,0-15.45,11.4-17.71,15.02
				L696.65,685.97 M717.33,663.92c-8.43,0-19.51,6.28-26.28,21.98c-1.49,0.66-2.81,2.48-2.81,3.97c0,1.65,0.5,2.15,0.5,3.8
				c0,5.29,5.79,10.41,10.91,10.41c7.6,0,13.22-4.46,18.18-8.27c2.31-1.82,3.31-2.98,3.31-4.46c0-1.32-0.83-2.31-2.31-2.31
				c-1.82,0-2.98,1.65-5.62,3.64c-2.98,2.31-7.27,5.62-11.9,5.62c-3.97,0-4.96-3.31-4.96-4.96c0-1.65,0.17-2.65,3.14-3.31
				c10.25-2.31,24.63-11.9,24.63-20.33C724.11,666.57,720.48,663.92,717.33,663.92L717.33,663.92z M698.49,684.92
				c2.48-3.97,11.74-14.55,16.86-14.55c1.32,0,1.98,0.33,1.98,1.65C717.33,675.49,704.28,684.75,698.49,684.92L698.49,684.92z"/>
		</g>
	</g>
</g>
<g id="Layer_2">
	<g class="st0">
		<path class="st3" d="M348.64,623.52c0.83,136.64,3.12,273.27,4.59,409.91c-1.22-113.5,1.66-229.32,3.23-343.52
			c0.21-15.35-2.07-35.61,8.94-48.09c10.35-11.73,27.5-8.65,41.39-8.65c28.95,0,48.66,0,77.61,0"/>
		<path class="st3" d="M354.25,493.35c0.32-12.96,1.56-44.07-1.22-87.94c-0.04-0.56-0.85-0.54-0.86,0.02
			c-0.71,42.46-2.17,66.8-2.17,87.93"/>
		<path class="st3" d="M215.49,633.61c61.07-0.03,28.29-0.16,89.36,0.08c14.58,0.06,33.79,3.21,43.79-10.17"/>
	</g>
	<g>
		<path class="st4" d="M111.12,249.27h6.26v-1.73c0-3.35,1-5.92,3-7.72c2-1.8,4.87-2.7,8.61-2.7c0.76,0,1.57,0.05,2.46,0.16
			c0.88,0.11,1.61,0.23,2.19,0.38v7.24c-0.68-0.14-1.29-0.24-1.81-0.3c-0.52-0.05-1.07-0.08-1.65-0.08c-1.33,0-2.34,0.26-3.02,0.78
			c-0.68,0.52-1.03,1.32-1.03,2.4v1.57h7.51v7.29h-7.51v21.28h-8.75v-21.28h-6.26V249.27z"/>
		<path class="st4" d="M162.91,274.06c-1.8,1.51-3.65,2.61-5.54,3.29c-1.89,0.68-4.02,1.03-6.4,1.03c-2.16,0-4.19-0.38-6.1-1.13
			c-1.91-0.76-3.56-1.8-4.94-3.13c-1.39-1.33-2.48-2.91-3.29-4.73c-0.81-1.82-1.22-3.75-1.22-5.8c0-2.05,0.39-3.99,1.16-5.81
			c0.77-1.82,1.83-3.39,3.16-4.73c1.33-1.33,2.91-2.38,4.73-3.13c1.82-0.76,3.77-1.13,5.86-1.13c2.09,0,4.01,0.4,5.78,1.19
			c1.76,0.79,3.28,1.87,4.56,3.24c1.28,1.37,2.28,3.02,3,4.94c0.72,1.93,1.08,4.01,1.08,6.24v2.16h-20.36
			c0.58,1.33,1.48,2.42,2.7,3.27c1.22,0.85,2.66,1.27,4.32,1.27c1.19,0,2.27-0.19,3.24-0.57s1.8-0.91,2.48-1.59L162.91,274.06z
			 M150.16,255.92c-1.44,0-2.68,0.4-3.73,1.19c-1.04,0.79-1.78,1.91-2.21,3.35h11.93c-0.47-1.37-1.23-2.47-2.29-3.29
			C152.8,256.33,151.56,255.92,150.16,255.92z"/>
		<path class="st4" d="M177.54,238.15v39.69h-8.75v-37.8L177.54,238.15z"/>
		<path class="st4" d="M187.26,246.63c-1.33,0-2.47-0.47-3.4-1.4c-0.94-0.94-1.4-2.07-1.4-3.4c0-1.33,0.47-2.47,1.4-3.4
			c0.94-0.94,2.07-1.4,3.4-1.4c1.33,0,2.47,0.47,3.4,1.4c0.94,0.94,1.4,2.07,1.4,3.4c0,1.33-0.47,2.47-1.4,3.4
			C189.72,246.16,188.59,246.63,187.26,246.63z M191.63,249.27v28.57h-8.75v-28.57H191.63z"/>
		<path class="st4" d="M196.98,289.23v-39.96h8.64v2.11c1.12-0.79,2.32-1.4,3.62-1.84s2.65-0.65,4.05-0.65
			c2.02,0,3.92,0.38,5.7,1.13c1.78,0.76,3.33,1.8,4.64,3.13c1.31,1.33,2.35,2.89,3.1,4.67c0.76,1.78,1.13,3.7,1.13,5.75
			c0,2.05-0.39,3.97-1.16,5.75c-0.77,1.78-1.83,3.33-3.16,4.64c-1.33,1.31-2.91,2.35-4.73,3.1c-1.82,0.76-3.75,1.13-5.81,1.13
			c-1.33,0-2.61-0.16-3.83-0.49c-1.22-0.32-2.38-0.79-3.46-1.4v12.91H196.98z M211.77,256.35c-1.22,0-2.34,0.19-3.35,0.57
			c-1.01,0.38-1.91,0.94-2.7,1.7v9.99c0.76,0.68,1.66,1.22,2.7,1.62c1.04,0.4,2.16,0.59,3.35,0.59c2.12,0,3.91-0.69,5.35-2.08
			c1.44-1.39,2.16-3.1,2.16-5.16c0-2.05-0.73-3.77-2.19-5.16C215.63,257.04,213.86,256.35,211.77,256.35z"/>
		<path class="st4" d="M258.37,274.06c-1.8,1.51-3.65,2.61-5.54,3.29c-1.89,0.68-4.02,1.03-6.4,1.03c-2.16,0-4.19-0.38-6.1-1.13
			c-1.91-0.76-3.56-1.8-4.94-3.13c-1.39-1.33-2.48-2.91-3.29-4.73c-0.81-1.82-1.22-3.75-1.22-5.8c0-2.05,0.39-3.99,1.16-5.81
			c0.77-1.82,1.83-3.39,3.16-4.73c1.33-1.33,2.91-2.38,4.73-3.13c1.82-0.76,3.77-1.13,5.86-1.13c2.09,0,4.01,0.4,5.78,1.19
			c1.76,0.79,3.28,1.87,4.56,3.24c1.28,1.37,2.28,3.02,3,4.94c0.72,1.93,1.08,4.01,1.08,6.24v2.16h-20.36
			c0.58,1.33,1.48,2.42,2.7,3.27c1.22,0.85,2.66,1.27,4.32,1.27c1.19,0,2.27-0.19,3.24-0.57s1.8-0.91,2.48-1.59L258.37,274.06z
			 M245.63,255.92c-1.44,0-2.68,0.4-3.73,1.19c-1.04,0.79-1.78,1.91-2.21,3.35h11.93c-0.47-1.37-1.23-2.47-2.29-3.29
			C248.27,256.33,247.03,255.92,245.63,255.92z"/>
		<path class="st4" d="M122.24,331.84l-12.2-28.57h9.5l7.07,17.5l7.07-17.5h9.29l-12.2,28.57H122.24z"/>
		<path class="st4" d="M170.63,328.06c-1.8,1.51-3.65,2.61-5.54,3.29c-1.89,0.68-4.02,1.03-6.4,1.03c-2.16,0-4.19-0.38-6.1-1.13
			c-1.91-0.76-3.56-1.8-4.94-3.13c-1.39-1.33-2.48-2.91-3.29-4.73c-0.81-1.82-1.22-3.75-1.22-5.8c0-2.05,0.39-3.99,1.16-5.81
			c0.77-1.82,1.83-3.39,3.16-4.73c1.33-1.33,2.91-2.38,4.73-3.13c1.82-0.76,3.77-1.13,5.86-1.13c2.09,0,4.01,0.4,5.78,1.19
			c1.76,0.79,3.28,1.87,4.56,3.24c1.28,1.37,2.28,3.02,3,4.94c0.72,1.93,1.08,4.01,1.08,6.24v2.16h-20.36
			c0.58,1.33,1.48,2.42,2.7,3.27c1.22,0.85,2.66,1.27,4.32,1.27c1.19,0,2.27-0.19,3.24-0.57s1.8-0.91,2.48-1.59L170.63,328.06z
			 M157.88,309.92c-1.44,0-2.68,0.4-3.73,1.19c-1.04,0.79-1.78,1.91-2.21,3.35h11.93c-0.47-1.37-1.23-2.47-2.29-3.29
			C160.52,310.33,159.29,309.92,157.88,309.92z"/>
		<path class="st4" d="M180.89,300.63c-1.33,0-2.47-0.47-3.4-1.4c-0.94-0.94-1.4-2.07-1.4-3.4c0-1.33,0.47-2.47,1.4-3.4
			c0.94-0.94,2.07-1.4,3.4-1.4c1.33,0,2.47,0.47,3.4,1.4c0.94,0.94,1.4,2.07,1.4,3.4c0,1.33-0.47,2.47-1.4,3.4
			C183.35,300.16,182.22,300.63,180.89,300.63z M185.26,303.27v28.57h-8.75v-28.57H185.26z"/>
		<path class="st4" d="M203.84,331.95c-2.02,0-3.92-0.38-5.7-1.13c-1.78-0.76-3.32-1.79-4.62-3.1c-1.3-1.31-2.32-2.86-3.08-4.64
			c-0.76-1.78-1.13-3.68-1.13-5.7c0-2.02,0.39-3.91,1.16-5.67c0.77-1.76,1.83-3.29,3.16-4.59c1.33-1.3,2.91-2.32,4.73-3.08
			c1.82-0.76,3.75-1.13,5.8-1.13c1.3,0,2.56,0.16,3.78,0.49c1.22,0.32,2.36,0.79,3.4,1.4v-1.51h8.64v28.3
			c0,3.85-1.28,6.81-3.83,8.88c-2.56,2.07-6.21,3.1-10.96,3.1c-2.27,0-4.45-0.22-6.53-0.65c-2.09-0.43-3.98-1.04-5.67-1.84l2.92-6.8
			c1.55,0.72,3.08,1.26,4.59,1.62s3.02,0.54,4.54,0.54c2.05,0,3.6-0.41,4.64-1.24c1.04-0.83,1.57-2.07,1.57-3.73v-1.78
			c-1.08,0.72-2.25,1.28-3.51,1.67C206.46,331.75,205.17,331.95,203.84,331.95z M197.9,317.37c0,2.05,0.72,3.77,2.16,5.16
			c1.44,1.39,3.2,2.08,5.29,2.08c1.19,0,2.28-0.18,3.27-0.54c0.99-0.36,1.86-0.88,2.62-1.57v-10.1c-0.76-0.65-1.64-1.16-2.65-1.54
			c-1.01-0.38-2.07-0.57-3.19-0.57c-2.09,0-3.86,0.68-5.32,2.05C198.63,313.71,197.9,315.39,197.9,317.37z"/>
		<path class="st4" d="M234.45,332.33c-3.02,0-5.51-0.83-7.45-2.48c-1.94-1.66-2.92-3.78-2.92-6.37c0-2.7,1.03-4.81,3.1-6.32
			c2.07-1.51,4.96-2.27,8.67-2.27c1.12,0,2.21,0.07,3.29,0.22c1.08,0.14,2.14,0.34,3.19,0.59v-1.4c0-1.44-0.46-2.51-1.38-3.21
			c-0.92-0.7-2.28-1.05-4.08-1.05c-1.12,0-2.38,0.18-3.78,0.54c-1.4,0.36-3.02,0.94-4.86,1.73l-3.13-6.43
			c2.3-1.04,4.56-1.83,6.78-2.35c2.21-0.52,4.4-0.78,6.56-0.78c3.96,0,7.04,0.94,9.23,2.83c2.2,1.89,3.29,4.55,3.29,7.96v18.31
			h-8.64v-1.73c-1.15,0.79-2.37,1.36-3.65,1.7C237.41,332.15,236,332.33,234.45,332.33z M232.4,323.31c0,0.9,0.4,1.6,1.19,2.11
			c0.79,0.5,1.89,0.76,3.29,0.76c1.04,0,2.02-0.11,2.94-0.32c0.92-0.22,1.75-0.56,2.51-1.03v-3.67c-0.83-0.22-1.67-0.38-2.54-0.49
			c-0.86-0.11-1.75-0.16-2.65-0.16c-1.51,0-2.68,0.24-3.51,0.73C232.82,321.71,232.4,322.41,232.4,323.31z"/>
		<path class="st5" d="M260.37,322.39c1.37,0,2.55,0.5,3.54,1.49c0.99,0.99,1.48,2.17,1.48,3.54c0,1.37-0.5,2.55-1.48,3.54
			c-0.99,0.99-2.17,1.49-3.54,1.49c-1.37,0-2.55-0.5-3.54-1.49c-0.99-0.99-1.49-2.17-1.49-3.54c0-1.37,0.49-2.55,1.49-3.54
			C257.83,322.89,259.01,322.39,260.37,322.39z"/>
	</g>
	<g>
		<path class="st2" d="M0,10.41h5.32V8.94c0-2.84,0.85-5.03,2.54-6.56c1.7-1.53,4.13-2.29,7.31-2.29c0.64,0,1.34,0.05,2.09,0.14
			c0.75,0.09,1.37,0.2,1.86,0.32v6.14c-0.58-0.12-1.09-0.21-1.54-0.25c-0.44-0.05-0.91-0.07-1.4-0.07c-1.13,0-1.99,0.22-2.57,0.66
			c-0.58,0.44-0.87,1.12-0.87,2.04v1.33h6.37v6.19h-6.37v18.06H5.32V16.59H0V10.41z"/>
		<path class="st2" d="M43.96,31.45c-1.53,1.28-3.09,2.22-4.7,2.8c-1.6,0.58-3.42,0.87-5.43,0.87c-1.83,0-3.56-0.32-5.18-0.96
			c-1.62-0.64-3.02-1.53-4.19-2.66c-1.18-1.13-2.11-2.47-2.8-4.01c-0.69-1.54-1.03-3.19-1.03-4.93c0-1.74,0.33-3.38,0.99-4.93
			c0.66-1.54,1.55-2.88,2.68-4.01c1.13-1.13,2.47-2.02,4.01-2.66c1.54-0.64,3.2-0.96,4.97-0.96c1.77,0,3.41,0.34,4.9,1.01
			c1.5,0.67,2.79,1.59,3.87,2.75c1.08,1.16,1.93,2.56,2.54,4.19c0.61,1.64,0.92,3.4,0.92,5.29v1.83H28.24
			c0.49,1.13,1.25,2.06,2.29,2.77c1.04,0.72,2.26,1.08,3.67,1.08c1.01,0,1.92-0.16,2.75-0.48s1.53-0.77,2.11-1.35L43.96,31.45z
			 M33.14,16.04c-1.22,0-2.28,0.34-3.16,1.01c-0.89,0.67-1.51,1.62-1.88,2.84h10.13c-0.4-1.16-1.05-2.09-1.95-2.8
			C35.38,16.4,34.33,16.04,33.14,16.04z"/>
		<path class="st2" d="M56.38,0.96v33.69h-7.43V2.57L56.38,0.96z"/>
		<path class="st2" d="M64.63,8.16c-1.13,0-2.09-0.4-2.89-1.19c-0.8-0.79-1.19-1.76-1.19-2.89c0-1.13,0.4-2.09,1.19-2.89
			C62.54,0.4,63.5,0,64.63,0c1.13,0,2.09,0.4,2.89,1.19c0.79,0.8,1.19,1.76,1.19,2.89c0,1.13-0.4,2.09-1.19,2.89
			C66.73,7.76,65.76,8.16,64.63,8.16z M68.35,10.41v24.25h-7.43V10.41H68.35z"/>
		<path class="st2" d="M72.89,44.33V10.41h7.33v1.79c0.95-0.67,1.97-1.19,3.07-1.56c1.1-0.37,2.25-0.55,3.44-0.55
			c1.71,0,3.32,0.32,4.84,0.96c1.51,0.64,2.83,1.53,3.94,2.66c1.12,1.13,1.99,2.45,2.64,3.97c0.64,1.51,0.96,3.14,0.96,4.88
			c0,1.74-0.33,3.37-0.99,4.88c-0.66,1.51-1.55,2.83-2.68,3.94c-1.13,1.12-2.47,1.99-4.01,2.64c-1.54,0.64-3.19,0.96-4.93,0.96
			c-1.13,0-2.22-0.14-3.25-0.41c-1.04-0.28-2.02-0.67-2.93-1.19v10.96H72.89z M85.45,16.41c-1.04,0-1.99,0.16-2.84,0.48
			c-0.86,0.32-1.62,0.8-2.29,1.44v8.48c0.64,0.58,1.41,1.04,2.29,1.38c0.89,0.34,1.83,0.5,2.84,0.5c1.8,0,3.32-0.59,4.54-1.76
			c1.22-1.18,1.83-2.64,1.83-4.38c0-1.74-0.62-3.2-1.86-4.38C88.72,17,87.22,16.41,85.45,16.41z"/>
		<path class="st2" d="M125.01,31.45c-1.53,1.28-3.09,2.22-4.7,2.8c-1.6,0.58-3.42,0.87-5.43,0.87c-1.83,0-3.56-0.32-5.18-0.96
			c-1.62-0.64-3.02-1.53-4.19-2.66c-1.18-1.13-2.11-2.47-2.8-4.01c-0.69-1.54-1.03-3.19-1.03-4.93c0-1.74,0.33-3.38,0.99-4.93
			c0.66-1.54,1.55-2.88,2.68-4.01c1.13-1.13,2.47-2.02,4.01-2.66c1.54-0.64,3.2-0.96,4.97-0.96c1.77,0,3.41,0.34,4.9,1.01
			c1.5,0.67,2.79,1.59,3.87,2.75c1.08,1.16,1.93,2.56,2.54,4.19c0.61,1.64,0.92,3.4,0.92,5.29v1.83h-17.28
			c0.49,1.13,1.25,2.06,2.29,2.77c1.04,0.72,2.26,1.08,3.67,1.08c1.01,0,1.92-0.16,2.75-0.48c0.83-0.32,1.53-0.77,2.11-1.35
			L125.01,31.45z M114.19,16.04c-1.22,0-2.28,0.34-3.16,1.01c-0.89,0.67-1.51,1.62-1.88,2.84h10.13c-0.4-1.16-1.05-2.09-1.95-2.8
			C116.43,16.4,115.38,16.04,114.19,16.04z"/>
		<path class="st2" d="M146.87,34.66l-10.36-24.25h8.07l6.01,14.85l6-14.85h7.88l-10.36,24.25H146.87z"/>
		<path class="st2" d="M187.94,31.45c-1.53,1.28-3.09,2.22-4.7,2.8c-1.6,0.58-3.42,0.87-5.43,0.87c-1.83,0-3.56-0.32-5.18-0.96
			c-1.62-0.64-3.02-1.53-4.19-2.66c-1.18-1.13-2.11-2.47-2.8-4.01c-0.69-1.54-1.03-3.19-1.03-4.93c0-1.74,0.33-3.38,0.99-4.93
			c0.66-1.54,1.55-2.88,2.68-4.01c1.13-1.13,2.47-2.02,4.01-2.66c1.54-0.64,3.2-0.96,4.97-0.96s3.41,0.34,4.91,1.01
			c1.5,0.67,2.79,1.59,3.87,2.75c1.08,1.16,1.93,2.56,2.54,4.19c0.61,1.64,0.92,3.4,0.92,5.29v1.83h-17.28
			c0.49,1.13,1.25,2.06,2.29,2.77c1.04,0.72,2.26,1.08,3.67,1.08c1.01,0,1.93-0.16,2.75-0.48c0.82-0.32,1.53-0.77,2.11-1.35
			L187.94,31.45z M177.13,16.04c-1.22,0-2.28,0.34-3.16,1.01c-0.89,0.67-1.51,1.62-1.88,2.84h10.13c-0.4-1.16-1.05-2.09-1.95-2.8
			C179.37,16.4,178.32,16.04,177.13,16.04z"/>
		<path class="st2" d="M196.65,8.16c-1.13,0-2.09-0.4-2.89-1.19c-0.8-0.79-1.19-1.76-1.19-2.89c0-1.13,0.4-2.09,1.19-2.89
			C194.56,0.4,195.52,0,196.65,0c1.13,0,2.09,0.4,2.89,1.19c0.8,0.8,1.19,1.76,1.19,2.89c0,1.13-0.4,2.09-1.19,2.89
			C198.75,7.76,197.78,8.16,196.65,8.16z M200.37,10.41v24.25h-7.43V10.41H200.37z"/>
		<path class="st2" d="M216.14,34.75c-1.71,0-3.32-0.32-4.84-0.96c-1.51-0.64-2.82-1.52-3.92-2.64c-1.1-1.12-1.97-2.43-2.61-3.94
			c-0.64-1.51-0.96-3.12-0.96-4.84c0-1.71,0.33-3.32,0.99-4.81c0.66-1.5,1.55-2.8,2.68-3.9c1.13-1.1,2.47-1.97,4.01-2.61
			c1.54-0.64,3.19-0.96,4.93-0.96c1.1,0,2.17,0.14,3.21,0.41c1.04,0.28,2,0.67,2.89,1.19v-1.28h7.34v24.02
			c0,3.27-1.09,5.78-3.25,7.54c-2.17,1.76-5.27,2.64-9.31,2.64c-1.93,0-3.78-0.18-5.55-0.55c-1.77-0.37-3.38-0.89-4.81-1.56
			l2.48-5.78c1.31,0.61,2.61,1.07,3.9,1.37c1.28,0.31,2.57,0.46,3.85,0.46c1.74,0,3.06-0.35,3.94-1.05c0.89-0.7,1.33-1.76,1.33-3.16
			v-1.51c-0.92,0.61-1.91,1.09-2.98,1.42C218.37,34.58,217.27,34.75,216.14,34.75z M211.09,22.37c0,1.74,0.61,3.2,1.83,4.38
			c1.22,1.18,2.72,1.76,4.49,1.76c1.01,0,1.93-0.15,2.77-0.46c0.84-0.31,1.58-0.75,2.22-1.33v-8.57c-0.64-0.55-1.39-0.99-2.25-1.31
			c-0.86-0.32-1.76-0.48-2.7-0.48c-1.77,0-3.28,0.58-4.52,1.74C211.71,19.27,211.09,20.69,211.09,22.37z"/>
		<path class="st2" d="M242.13,35.07c-2.57,0-4.68-0.7-6.33-2.11c-1.65-1.41-2.48-3.21-2.48-5.41c0-2.29,0.88-4.08,2.64-5.36
			c1.76-1.28,4.21-1.93,7.36-1.93c0.95,0,1.88,0.06,2.8,0.18c0.92,0.12,1.82,0.29,2.7,0.5v-1.19c0-1.22-0.39-2.13-1.17-2.73
			c-0.78-0.6-1.93-0.89-3.46-0.89c-0.95,0-2.02,0.15-3.21,0.46c-1.19,0.31-2.57,0.8-4.13,1.47l-2.66-5.46
			c1.95-0.89,3.87-1.55,5.75-1.99c1.88-0.44,3.74-0.66,5.57-0.66c3.36,0,5.97,0.8,7.84,2.41c1.86,1.6,2.8,3.86,2.8,6.76v15.54h-7.33
			v-1.47c-0.98,0.67-2.01,1.15-3.09,1.44C244.64,34.92,243.44,35.07,242.13,35.07z M240.39,27.41c0,0.76,0.34,1.36,1.01,1.79
			c0.67,0.43,1.6,0.64,2.8,0.64c0.89,0,1.72-0.09,2.5-0.28c0.78-0.18,1.49-0.47,2.13-0.87v-3.12c-0.7-0.18-1.42-0.32-2.15-0.41
			c-0.73-0.09-1.48-0.14-2.25-0.14c-1.28,0-2.28,0.21-2.98,0.62C240.74,26.06,240.39,26.65,240.39,27.41z"/>
		<path class="st5" d="M264.13,26.63c1.16,0,2.16,0.42,3,1.26c0.84,0.84,1.26,1.84,1.26,3c0,1.16-0.42,2.16-1.26,3
			c-0.84,0.84-1.84,1.26-3,1.26c-1.16,0-2.16-0.42-3-1.26c-0.84-0.84-1.26-1.84-1.26-3c0-1.16,0.42-2.16,1.26-3
			C261.97,27.05,262.97,26.63,264.13,26.63z"/>
	</g>
	<g>
		<path class="st4" d="M-50.88,247.34h5.32v-1.47c0-2.84,0.85-5.03,2.55-6.56c1.7-1.53,4.14-2.29,7.32-2.29
			c0.64,0,1.34,0.05,2.09,0.14c0.75,0.09,1.37,0.2,1.86,0.32v6.15c-0.58-0.12-1.09-0.21-1.54-0.25c-0.44-0.05-0.91-0.07-1.4-0.07
			c-1.13,0-1.99,0.22-2.57,0.67c-0.58,0.44-0.87,1.12-0.87,2.04v1.33h6.38v6.19h-6.38v18.08h-7.43v-18.08h-5.32V247.34z"/>
		<path class="st4" d="M-20.32,271.61l-10.37-24.27h8.08l6.01,14.87l6.01-14.87h7.89l-10.37,24.27H-20.32z"/>
		<path class="st6" d="M-1.14,263.58c1.16,0,2.16,0.42,3.01,1.26c0.84,0.84,1.26,1.84,1.26,3.01c0,1.16-0.42,2.16-1.26,3.01
			c-0.84,0.84-1.84,1.26-3.01,1.26c-1.16,0-2.16-0.42-3.01-1.26c-0.84-0.84-1.26-1.84-1.26-3.01c0-1.16,0.42-2.16,1.26-3.01
			C-3.31,264-2.31,263.58-1.14,263.58z"/>
	</g>
	<g>
		<path class="st2" d="M-352.62,10.32h5.32V8.86c0-2.84,0.85-5.03,2.55-6.56c1.7-1.53,4.14-2.29,7.32-2.29
			c0.64,0,1.34,0.05,2.09,0.14c0.75,0.09,1.37,0.2,1.86,0.32v6.15c-0.58-0.12-1.09-0.21-1.54-0.25c-0.44-0.05-0.91-0.07-1.4-0.07
			c-1.13,0-1.99,0.22-2.57,0.67c-0.58,0.44-0.87,1.12-0.87,2.04v1.33h6.38v6.19h-6.38V34.6h-7.43V16.52h-5.32V10.32z"/>
		<path class="st2" d="M-322.07,34.6l-10.37-24.27h8.08l6.01,14.87l6.01-14.87h7.89l-10.37,24.27H-322.07z"/>
		<path class="st6" d="M-302.89,26.57c1.16,0,2.16,0.42,3.01,1.26c0.84,0.84,1.26,1.84,1.26,3.01c0,1.16-0.42,2.16-1.26,3.01
			c-0.84,0.84-1.84,1.26-3.01,1.26c-1.16,0-2.16-0.42-3.01-1.26c-0.84-0.84-1.26-1.84-1.26-3.01c0-1.16,0.42-2.16,1.26-3.01
			C-305.05,26.99-304.05,26.57-302.89,26.57z"/>
	</g>
	<polygon style="fill:none;" points="689.63,990.15 687.37,990.15 687.37,990.15 689.63,990.15 	"/>
	<g>
		<rect x="992.26" y="1186.58" width="36" height="3"/>
		<rect x="992.26" y="1195.08" width="36" height="3"/>
		<rect x="992.26" y="1203.58" width="36" height="3"/>
	</g>
	<g>
		<path class="st2" d="M1158.7,1195.73v-0.04c-0.01,0.01-0.01,0.02-0.02,0.04L1158.7,1195.73L1158.7,1195.73z"/>
		<path class="st2" d="M1167.96,1184.57h-20.69c-0.92,0-1.66,0.74-1.66,1.66v20.7c0,0.92,0.74,1.66,1.66,1.66h20.69
			c0.92,0,1.66-0.74,1.66-1.66v-20.7C1169.62,1185.31,1168.88,1184.57,1167.96,1184.57z M1152.97,1205.2h-3.68v-11.08h3.68V1205.2z
			 M1151.13,1192.61h-0.02c-1.24,0-2.04-0.85-2.04-1.91c0-1.09,0.83-1.91,2.09-1.91s2.03,0.83,2.06,1.91
			C1153.22,1191.76,1152.41,1192.61,1151.13,1192.61z M1166.26,1205.2h-3.68v-5.93c0-1.49-0.54-2.51-1.86-2.51
			c-1.02,0-1.62,0.68-1.89,1.35c-0.1,0.24-0.12,0.56-0.12,0.9v6.19h-3.68c0,0,0.05-10.04,0-11.08h3.68v1.57
			c0.49-0.76,1.36-1.83,3.32-1.83c2.43,0,4.24,1.58,4.24,4.99L1166.26,1205.2L1166.26,1205.2z"/>
	</g>
	<g>
		<path class="st2" d="M1115.91,1186.73c3.2,0,3.58,0.01,4.85,0.07c1.17,0.05,1.81,0.25,2.23,0.41c0.56,0.22,0.96,0.48,1.38,0.9
			c0.42,0.42,0.68,0.82,0.9,1.38c0.16,0.42,0.36,1.06,0.41,2.23c0.06,1.27,0.07,1.65,0.07,4.85s-0.01,3.58-0.07,4.85
			c-0.05,1.17-0.25,1.81-0.41,2.23c-0.22,0.56-0.48,0.96-0.9,1.38c-0.42,0.42-0.82,0.68-1.38,0.9c-0.42,0.16-1.06,0.36-2.23,0.41
			c-1.27,0.06-1.64,0.07-4.85,0.07s-3.58-0.01-4.85-0.07c-1.17-0.05-1.81-0.25-2.23-0.41c-0.56-0.22-0.96-0.48-1.38-0.9
			s-0.68-0.82-0.9-1.38c-0.16-0.42-0.36-1.06-0.41-2.23c-0.06-1.27-0.07-1.64-0.07-4.85s0.01-3.58,0.07-4.85
			c0.05-1.17,0.25-1.81,0.41-2.23c0.22-0.56,0.48-0.96,0.9-1.38s0.82-0.68,1.38-0.9c0.42-0.16,1.06-0.36,2.23-0.41
			C1112.32,1186.74,1112.7,1186.73,1115.91,1186.73 M1115.91,1184.57c-3.26,0-3.67,0.01-4.95,0.07c-1.28,0.06-2.15,0.26-2.91,0.56
			c-0.79,0.31-1.46,0.72-2.13,1.38s-1.08,1.34-1.38,2.13c-0.3,0.76-0.5,1.64-0.56,2.91c-0.06,1.28-0.07,1.69-0.07,4.95
			s0.01,3.67,0.07,4.95c0.06,1.28,0.26,2.15,0.56,2.91c0.31,0.79,0.72,1.46,1.38,2.13s1.34,1.08,2.13,1.38
			c0.76,0.3,1.64,0.5,2.91,0.56c1.28,0.06,1.69,0.07,4.95,0.07s3.67-0.01,4.95-0.07c1.28-0.06,2.15-0.26,2.91-0.56
			c0.79-0.31,1.46-0.72,2.13-1.38s1.08-1.34,1.38-2.13c0.3-0.76,0.5-1.64,0.56-2.91c0.06-1.28,0.07-1.69,0.07-4.95
			s-0.01-3.67-0.07-4.95c-0.06-1.28-0.26-2.15-0.56-2.91c-0.31-0.79-0.72-1.46-1.38-2.13s-1.34-1.08-2.13-1.38
			c-0.76-0.3-1.64-0.5-2.91-0.56C1119.57,1184.58,1119.17,1184.57,1115.91,1184.57z M1115.91,1190.41c-3.4,0-6.16,2.76-6.16,6.16
			s2.76,6.16,6.16,6.16c3.4,0,6.16-2.76,6.16-6.16S1119.31,1190.41,1115.91,1190.41z M1115.91,1200.57c-2.21,0-4-1.79-4-4
			s1.79-4,4-4c2.21,0,4,1.79,4,4S1118.12,1200.57,1115.91,1200.57z M1123.75,1190.16c0,0.8-0.64,1.44-1.44,1.44
			c-0.8,0-1.44-0.64-1.44-1.44s0.64-1.44,1.44-1.44C1123.11,1188.72,1123.75,1189.37,1123.75,1190.16z"/>
	</g>
	<g>
		<path id="Behance_2_" class="st2" d="M1068.17,1191.17h-6.01v-1.49h6.01V1191.17L1068.17,1191.17z M1058.15,1197.29
			c0.39,0.6,0.58,1.33,0.58,2.19c0,0.89-0.22,1.68-0.66,2.38c-0.28,0.46-0.63,0.86-1.05,1.17c-0.48,0.37-1.04,0.62-1.69,0.75
			c-0.65,0.13-1.35,0.2-2.11,0.2h-6.72v-14.93h7.21c1.82,0.03,3.11,0.56,3.87,1.59c0.46,0.63,0.68,1.39,0.68,2.28
			c0,0.91-0.23,1.64-0.69,2.2c-0.25,0.31-0.63,0.6-1.14,0.85C1057.19,1196.25,1057.77,1196.69,1058.15,1197.29z M1049.94,1194.94
			h3.16c0.65,0,1.17-0.13,1.58-0.37c0.4-0.25,0.6-0.68,0.6-1.31c0-0.7-0.27-1.15-0.8-1.38c-0.46-0.15-1.05-0.23-1.76-0.23h-2.78
			V1194.94L1049.94,1194.94z M1055.59,1199.27c0-0.77-0.32-1.31-0.95-1.6c-0.35-0.16-0.85-0.25-1.49-0.25h-3.21v3.98h3.16
			c0.65,0,1.15-0.08,1.51-0.26C1055.26,1200.81,1055.59,1200.19,1055.59,1199.27z M1070.4,1196.84c0.07,0.49,0.11,1.2,0.09,2.12
			h-7.78c0.04,1.08,0.41,1.83,1.12,2.26c0.42,0.27,0.94,0.4,1.54,0.4c0.63,0,1.15-0.16,1.55-0.49c0.22-0.18,0.41-0.42,0.58-0.73
			h2.85c-0.08,0.63-0.42,1.28-1.03,1.93c-0.96,1.04-2.3,1.56-4.02,1.56c-1.43,0-2.68-0.44-3.77-1.31c-1.08-0.88-1.63-2.31-1.63-4.28
			c0-1.86,0.49-3.28,1.47-4.27c0.98-0.99,2.26-1.48,3.82-1.48c0.93,0,1.76,0.17,2.52,0.5c0.75,0.34,1.36,0.86,1.85,1.58
			C1069.99,1195.26,1070.27,1196,1070.4,1196.84z M1067.59,1197.11c-0.05-0.75-0.3-1.31-0.75-1.69c-0.44-0.39-1-0.58-1.66-0.58
			c-0.72,0-1.27,0.2-1.67,0.61s-0.65,0.96-0.75,1.66L1067.59,1197.11L1067.59,1197.11z"/>
	</g>
</g>
</svg>
