<svg id="logo" xmlns="http://www.w3.org/2000/svg" width="54" height="35.11" viewBox="0 0 54 35.11">
  <path id="Caminho_1" data-name="Caminho 1" d="M0,10.32H5.32V8.86A8.375,8.375,0,0,1,7.87,2.3C9.57.76,12.01,0,15.19,0a17.725,17.725,0,0,1,2.09.14,15.975,15.975,0,0,1,1.86.32V6.61a13.9,13.9,0,0,0-1.54-.25,12.493,12.493,0,0,0-1.4-.07,4.148,4.148,0,0,0-2.57.67A2.4,2.4,0,0,0,12.76,9v1.33h6.38v6.19H12.76V34.6H5.32V16.52H0Z" fill="#fff"/>
  <path id="Caminho_2" data-name="Caminho 2" d="M30.56,34.6,20.19,10.32h8.08l6.01,14.87,6.01-14.87h7.89L37.8,34.6Z" fill="#fff"/>
  <path id="Caminho_3" data-name="Caminho 3" d="M49.73,26.57a4.285,4.285,0,1,1-3,1.25A4.135,4.135,0,0,1,49.73,26.57Z" fill="#c365ef"/>
</svg>
